<svg width="64" height="64" viewBox="0 0 64 64" fill="none" xmlns="http://www.w3.org/2000/svg">
<path d="M40.6897 15.7241C41.0896 15.3433 41.105 14.7103 40.7241 14.3103C40.3433 13.9104 39.7103 13.895 39.3103 14.2759L31.6055 21.6138L29.1954 19.2814C28.7985 18.8973 28.1655 18.9077 27.7814 19.3046C27.3973 19.7015 27.4077 20.3345 27.8046 20.7186L30.9046 23.7186C31.2901 24.0916 31.9012 24.0941 32.2897 23.7241L40.6897 15.7241Z" fill="#0FB0F0"/>
<path fill-rule="evenodd" clip-rule="evenodd" d="M18.8837 7.15218C20.2813 6.28365 24.6579 4 32 4C39.3421 4 43.7187 6.28365 45.1163 7.15218C45.7084 7.52015 46 8.15405 46 8.77337V24.8971C46 26.8224 45.5567 28.4117 44.775 29.7615C43.999 31.1015 42.9187 32.155 41.7169 33.0563C40.5221 33.9523 39.1676 34.7258 37.8302 35.4792L37.5827 35.6185C36.3112 36.3342 35.0526 37.0425 33.8615 37.8623C32.7447 38.6308 31.2553 38.6308 30.1385 37.8623C28.9474 37.0425 27.6889 36.3342 26.4174 35.6186L26.1698 35.4792C24.8324 34.7258 23.4779 33.9523 22.2831 33.0563C21.0813 32.155 20.001 31.1015 19.225 29.7615C18.4433 28.4117 18 26.8224 18 24.8971V8.77337C18 8.15405 18.2916 7.52015 18.8837 7.15218ZM20 8.81353V24.8971C20 26.4971 20.3633 27.7363 20.9557 28.7592C21.5537 29.7919 22.415 30.6553 23.483 31.4562C24.558 32.2624 25.8016 32.9763 27.1514 33.7366L27.4153 33.8852C28.5815 34.5414 29.8144 35.2351 31.0004 36.0301C31.0002 36.0201 31 36.0101 31 36V29.9451C26.5 29.4476 23 25.6326 23 21C23 16.3674 26.5 12.5524 31 12.0549V6.01519C24.8168 6.20434 21.1538 8.10868 20 8.81353ZM33 29.9451C37.5 29.4476 41 25.6326 41 21C41 20.6199 40.9764 20.2448 40.9304 19.8763C40.8621 19.3282 40.3624 18.9393 39.8144 19.0077C39.2663 19.076 38.8775 19.5757 38.9458 20.1237C38.9815 20.4104 39 20.7028 39 21C39 24.866 35.866 28 32 28C28.134 28 25 24.866 25 21C25 17.134 28.134 14 32 14C33.2767 14 34.4707 14.3409 35.4993 14.9359C35.9773 15.2124 36.5891 15.049 36.8656 14.571C37.1421 14.0929 36.9788 13.4812 36.5007 13.2047C35.4493 12.5964 34.2633 12.1948 33 12.055V6.01519C39.1832 6.20434 42.8462 8.10868 44 8.81353V24.8971C44 26.4971 43.6367 27.7363 43.0443 28.7592C42.4463 29.7919 41.585 30.6553 40.517 31.4562C39.442 32.2624 38.1984 32.9763 36.8486 33.7366L36.5847 33.8852C35.4185 34.5414 34.1856 35.2351 32.9996 36.0301C32.9998 36.0201 33 36.0101 33 36V29.9451Z" fill="#0FB0F0"/>
<path fill-rule="evenodd" clip-rule="evenodd" d="M10 13C9.44772 13 9 13.4477 9 14V44H55V14C55 13.4477 54.5523 13 54 13H49C48.4477 13 48 12.5523 48 12C48 11.4477 48.4477 11 49 11H54C55.6569 11 57 12.3431 57 14V44.9923L59.4968 48.7423C60.4044 50.1055 60.3894 51.8843 59.4589 53.2319L58.0498 55.2728C57.303 56.3543 56.0725 57 54.7582 57H9.24183C7.9275 57 6.69703 56.3543 5.95024 55.2728L4.5411 53.2319C3.61058 51.8843 3.59555 50.1055 4.50318 48.7423L7 44.9923V14C7 12.3431 8.34315 11 10 11H14C14.5523 11 15 11.4477 15 12C15 12.5523 14.5523 13 14 13H10ZM6.16794 49.8508L8.73184 46H55.2682L57.8321 49.8508C57.9678 50.0546 58.0622 50.277 58.1155 50.5066C58.0776 50.5022 58.0391 50.5 58 50.5H6.5C6.24907 50.5 6.01973 50.5924 5.84416 50.7451C5.87783 50.4317 5.98568 50.1245 6.16794 49.8508ZM6.46575 52.4994L7.59603 54.1364C7.96943 54.6772 8.58466 55 9.24183 55H54.7582C55.4153 55 56.0306 54.6772 56.404 54.1364L57.5338 52.5H6.5C6.48854 52.5 6.47712 52.4998 6.46575 52.4994Z" fill="#0FB0F0"/>
</svg>
