<svg width="64" height="64" viewBox="0 0 64 64" fill="none" xmlns="http://www.w3.org/2000/svg">
<path d="M43 8C43 8.55228 42.5523 9 42 9C41.4477 9 41 8.55228 41 8C41 7.44772 41.4477 7 42 7C42.5523 7 43 7.44772 43 8Z" fill="#0FB0F0"/>
<path d="M39 9C39.5523 9 40 8.55228 40 8C40 7.44772 39.5523 7 39 7C38.4477 7 38 7.44772 38 8C38 8.55228 38.4477 9 39 9Z" fill="#0FB0F0"/>
<path d="M37 8C37 8.55228 36.5523 9 36 9C35.4477 9 35 8.55228 35 8C35 7.44772 35.4477 7 36 7C36.5523 7 37 7.44772 37 8Z" fill="#0FB0F0"/>
<path d="M40.7071 22.2929L36.7071 18.2929C36.3166 17.9024 35.6834 17.9024 35.2929 18.2929C34.9024 18.6834 34.9024 19.3166 35.2929 19.7071L38.5858 23L35.2929 26.2929C34.9024 26.6834 34.9024 27.3166 35.2929 27.7071C35.6834 28.0976 36.3166 28.0976 36.7071 27.7071L40.7071 23.7071C41.0976 23.3166 41.0976 22.6834 40.7071 22.2929Z" fill="#0FB0F0"/>
<path d="M28.7071 18.2929C28.3166 17.9024 27.6834 17.9024 27.2929 18.2929L23.2929 22.2929C22.9024 22.6834 22.9024 23.3166 23.2929 23.7071L27.2929 27.7071C27.6834 28.0976 28.3166 28.0976 28.7071 27.7071C29.0976 27.3166 29.0976 26.6834 28.7071 26.2929L25.4142 23L28.7071 19.7071C29.0976 19.3166 29.0976 18.6834 28.7071 18.2929Z" fill="#0FB0F0"/>
<path d="M33.9701 19.2425C34.1041 18.7067 33.7783 18.1638 33.2425 18.0299C32.7067 17.8959 32.1638 18.2217 32.0299 18.7575L30.0299 26.7575C29.8959 27.2933 30.2217 27.8362 30.7575 27.9701C31.2933 28.1041 31.8362 27.7783 31.9701 27.2425L33.9701 19.2425Z" fill="#0FB0F0"/>
<path fill-rule="evenodd" clip-rule="evenodd" d="M18 6C18 4.89543 18.8954 4 20 4H44C45.1046 4 46 4.89543 46 6V34C46 35.1046 45.1046 36 44 36H20C18.8954 36 18 35.1046 18 34V6ZM44 6H20V10H44V6ZM44 12H20V34H44V12Z" fill="#0FB0F0"/>
<path fill-rule="evenodd" clip-rule="evenodd" d="M10 13C9.44772 13 9 13.4477 9 14V44H55V14C55 13.4477 54.5523 13 54 13H49.7391C49.1868 13 48.7391 12.5523 48.7391 12C48.7391 11.4477 49.1868 11 49.7391 11H54C55.6569 11 57 12.3431 57 14V44.9923L59.4968 48.7423C60.4044 50.1055 60.3894 51.8843 59.4589 53.2319L58.0498 55.2728C57.303 56.3543 56.0725 57 54.7582 57H9.24182C7.92749 57 6.69703 56.3543 5.95024 55.2728L4.5411 53.2319C3.61057 51.8843 3.59555 50.1055 4.50318 48.7423L7 44.9923V14C7 12.3431 8.34315 11 10 11H14.2609C14.8132 11 15.2609 11.4477 15.2609 12C15.2609 12.5523 14.8132 13 14.2609 13H10ZM8.73183 46H55.2682L57.8321 49.8508C57.9678 50.0546 58.0622 50.277 58.1155 50.5066C58.0776 50.5022 58.0391 50.5 58 50.5H6.5C6.24907 50.5 6.01973 50.5924 5.84415 50.7451C5.87783 50.4317 5.98568 50.1245 6.16793 49.8508L8.73183 46ZM6.46575 52.4994L7.59603 54.1364C7.96943 54.6772 8.58466 55 9.24182 55H54.7582C55.4153 55 56.0306 54.6772 56.404 54.1364L57.5338 52.5H6.5C6.48854 52.5 6.47712 52.4998 6.46575 52.4994Z" fill="#0FB0F0"/>
</svg>
