<svg width="64" height="64" viewBox="0 0 64 64" fill="none" xmlns="http://www.w3.org/2000/svg">
<path d="M36.5 28C35.9477 28 35.5 28.4477 35.5 29C35.5 29.5523 35.9477 30 36.5 30H39C39.5523 30 40 29.5523 40 29C40 28.4477 39.5523 28 39 28H36.5Z" fill="#0FB0F0"/>
<path d="M35.5 33C35.5 32.4477 35.9477 32 36.5 32H39C39.5523 32 40 32.4477 40 33C40 33.5523 39.5523 34 39 34H36.5C35.9477 34 35.5 33.5523 35.5 33Z" fill="#0FB0F0"/>
<path d="M36.5 36C35.9477 36 35.5 36.4477 35.5 37C35.5 37.5523 35.9477 38 36.5 38H39C39.5523 38 40 37.5523 40 37C40 36.4477 39.5523 36 39 36H36.5Z" fill="#0FB0F0"/>
<path fill-rule="evenodd" clip-rule="evenodd" d="M18 27C16.3431 27 15 28.3431 15 30V40C15 41.6569 16.3431 43 18 43H20C21.0666 43 22.0031 42.4434 22.5351 41.6049C23.4338 42.4689 24.6549 43.0001 26 43.0001C26.0972 43.0001 26.1939 42.9973 26.2899 42.9918C26.4368 42.9834 26.5809 42.9881 26.7751 42.9944L26.9094 42.9986C26.9395 42.9995 26.9697 43 27 43H41C43.2091 43 45 41.2091 45 39V38.9646C46.6961 38.7219 48 37.2632 48 35.5C48 34.7434 47.7599 34.0429 47.3519 33.4705C48.3416 32.8522 49 31.753 49 30.5C49 29.5207 48.5978 28.6353 47.9495 28C48.5978 27.3647 49 26.4793 49 25.5C49 23.567 47.433 22 45.5 22H36.5C36.3669 22 36.2974 21.984 36.266 21.9727C36.2521 21.9403 36.2215 21.8477 36.2166 21.6449C36.2011 21.0034 36.4411 20.0478 36.772 18.7818L36.7935 18.6997C37.1566 17.3109 37.5996 15.6166 37.5391 14.1328C37.5074 13.3554 37.3372 12.5565 36.8869 11.8585C36.425 11.1426 35.7235 10.6184 34.7888 10.3151C33.8529 10.0114 33.013 10.3326 32.4238 10.8338C31.8549 11.3176 31.4584 12.0055 31.2506 12.6754C30.7723 14.2169 29.6745 15.4426 28.3249 16.9197L28.2777 16.9713C26.3204 19.1132 24 21.6523 24 26C24 26.1693 23.864 26.4531 23.4535 26.6964C22.9377 27.0022 22.4812 27.3985 22.1061 27.8636C21.5645 27.3296 20.8207 27 20 27H18ZM21 40C21 40.5523 20.5523 41 20 41H18C17.4477 41 17 40.5523 17 40V30C17 29.4477 17.4477 29 18 29H20C20.5523 29 21 29.4477 21 30V40ZM26 41.0001C24.3431 41.0001 23 39.657 23 38.0001V31.0001C23 29.9023 23.5891 28.941 24.4733 28.4169C25.2031 27.9843 26 27.1564 26 26C26 22.4647 27.8217 20.4353 29.8014 18.2688L29.8685 18.1953C31.14 16.8042 32.5383 15.2743 33.1608 13.268C33.2802 12.883 33.4957 12.5476 33.7195 12.3572C33.923 12.1842 34.0566 12.1801 34.1714 12.2174C34.722 12.3961 35.0232 12.6588 35.2063 12.9427C35.401 13.2445 35.5181 13.6582 35.5408 14.2142C35.5878 15.3677 35.2267 16.785 34.837 18.2762L34.8081 18.3864C34.5158 19.5038 34.194 20.7339 34.2172 21.6932C34.2295 22.2044 34.3395 22.8141 34.7637 23.299C35.215 23.8149 35.8505 24 36.5 24H45.5C46.3284 24 47 24.6716 47 25.5C47 26.3284 46.3284 27 45.5 27C44.9477 27 44.5 27.4477 44.5 28C44.5 28.5523 44.9477 29 45.5 29C46.3284 29 47 29.6716 47 30.5C47 31.3284 46.3284 32 45.5 32H44.5C43.9477 32 43.5 32.4477 43.5 33C43.5 33.5523 43.9477 34 44.5 34C45.3284 34 46 34.6716 46 35.5C46 36.3284 45.3284 37 44.5 37C43.6716 37 43 37.6716 43 38.5V39C43 40.1046 42.1046 41 41 41H27C26.9895 41 26.9791 40.9998 26.9688 40.9995L26.8673 40.9962C26.6721 40.9895 26.4213 40.981 26.1754 40.9951C26.1175 40.9984 26.059 41.0001 26 41.0001ZM36.2445 21.9619C36.2445 21.9619 36.2487 21.9633 36.2546 21.9681C36.2514 21.9666 36.2474 21.9644 36.2474 21.9644L36.2456 21.9631L36.2445 21.9619Z" fill="#0FB0F0"/>
<path fill-rule="evenodd" clip-rule="evenodd" d="M13 4C10.2386 4 8 6.23857 8 9V45C8 47.7614 10.2386 50 13 50H18C18.5523 50 19 50.4477 19 51V57.163C19 58.9225 21.1082 59.8246 22.381 58.6097L31.1108 50.2766C31.2969 50.0991 31.5441 50 31.8013 50H51C53.7614 50 56 47.7614 56 45V9C56 6.23858 53.7614 4 51 4H13ZM10 9C10 7.34315 11.3431 6 13 6H51C52.6569 6 54 7.34315 54 9V45C54 46.6569 52.6569 48 51 48H31.8013C31.0298 48 30.288 48.2972 29.7299 48.8299L21 57.163L21 51C21 49.3431 19.6569 48 18 48H13C11.3431 48 10 46.6569 10 45V9Z" fill="#0FB0F0"/>
</svg>
