<svg width="64" height="64" viewBox="0 0 64 64" fill="none" xmlns="http://www.w3.org/2000/svg">
<path fill-rule="evenodd" clip-rule="evenodd" d="M44 7C44 8.30622 43.1652 9.41746 42 9.82929V17C42 17.5523 41.5523 18 41 18C40.4477 18 40 17.5523 40 17V9.82929C38.8348 9.41746 38 8.30622 38 7C38 5.34315 39.3431 4 41 4C42.6569 4 44 5.34315 44 7ZM41 8C41.5523 8 42 7.55228 42 7C42 6.44772 41.5523 6 41 6C40.4477 6 40 6.44772 40 7C40 7.55228 40.4477 8 41 8Z" fill="#0FB0F0"/>
<path fill-rule="evenodd" clip-rule="evenodd" d="M32 14C32.5523 14 33 13.5523 33 13V9.82929C34.1652 9.41746 35 8.30622 35 7C35 5.34315 33.6569 4 32 4C30.3431 4 29 5.34315 29 7C29 8.30622 29.8348 9.41746 31 9.82929V12H17V9.82929C18.1652 9.41746 19 8.30622 19 7C19 5.34315 17.6569 4 16 4C14.3431 4 13 5.34315 13 7C13 8.30622 13.8348 9.41746 15 9.82929V13C15 13.2652 15.1054 13.5196 15.2929 13.7071C15.4804 13.8946 15.7348 14 16 14H23V17C23 17.5523 23.4477 18 24 18C24.5523 18 25 17.5523 25 17V14H32ZM15.9999 8C15.4477 7.99996 15 7.55226 15 7C15 6.44772 15.4477 6 16 6C16.5523 6 17 6.44772 17 7C17 7.55228 16.5522 8 15.9999 8ZM32 8C32.5523 8 33 7.55228 33 7C33 6.44772 32.5523 6 32 6C31.4477 6 31 6.44772 31 7C31 7.55228 31.4477 8 32 8Z" fill="#0FB0F0"/>
<path fill-rule="evenodd" clip-rule="evenodd" d="M9.8293 24C9.41746 25.1652 8.30622 26 7 26C5.34315 26 4 24.6569 4 23C4 21.3431 5.34315 20 7 20C8.30622 20 9.41746 20.8348 9.82929 22L17 22C17.5523 22 18 22.4477 18 23C18 23.5523 17.5523 24 17 24L9.8293 24ZM7 22C7.55228 22 8 22.4477 8 23C8 23.5523 7.55228 24 7 24C6.44772 24 6 23.5523 6 23C6 22.4477 6.44772 22 7 22Z" fill="#0FB0F0"/>
<path fill-rule="evenodd" clip-rule="evenodd" d="M26 57C26 55.6938 25.1652 54.5825 24 54.1707L24 47C24 46.4477 23.5523 46 23 46C22.4477 46 22 46.4477 22 47L22 54.1707C20.8348 54.5825 20 55.6938 20 57C20 58.6569 21.3431 60 23 60C24.6569 60 26 58.6569 26 57ZM23 56C22.4477 56 22 56.4477 22 57C22 57.5523 22.4477 58 23 58C23.5523 58 24 57.5523 24 57C24 56.4477 23.5523 56 23 56Z" fill="#0FB0F0"/>
<path fill-rule="evenodd" clip-rule="evenodd" d="M54.1707 40C54.5825 38.8348 55.6938 38 57 38C58.6569 38 60 39.3431 60 41C60 42.6569 58.6569 44 57 44C55.6938 44 54.5825 43.1652 54.1707 42L47 42C46.4477 42 46 41.5523 46 41C46 40.4477 46.4477 40 47 40L54.1707 40ZM57 42C56.4477 42 56 41.5523 56 41C56 40.4477 56.4477 40 57 40C57.5523 40 58 40.4477 58 41C58 41.5523 57.5523 42 57 42Z" fill="#0FB0F0"/>
<path fill-rule="evenodd" clip-rule="evenodd" d="M9.82929 33H12L12 47H9.82929C9.41746 45.8348 8.30622 45 7 45C5.34315 45 4 46.3431 4 48C4 49.6569 5.34315 51 7 51C8.30622 51 9.41746 50.1652 9.82929 49H13C13.2652 49 13.5196 48.8946 13.7071 48.7071C13.8946 48.5196 14 48.2652 14 48V41H17C17.5523 41 18 40.5523 18 40C18 39.4477 17.5523 39 17 39H14V32C14 31.4477 13.5523 31 13 31H9.82929C9.41746 29.8348 8.30622 29 7 29C5.34315 29 4 30.3431 4 32C4 33.6569 5.34315 35 7 35C8.30622 35 9.41746 34.1652 9.82929 33ZM8 48C8 47.4477 7.55228 47 7 47C6.44772 47 6 47.4477 6 48C6 48.5523 6.44772 49 7 49C7.55229 49 8 48.5523 8 48ZM7 31C7.55228 31 8 31.4477 8 32C8 32.5523 7.55228 33 7 33C6.44772 33 6 32.5523 6 32C6 31.4477 6.44772 31 7 31Z" fill="#0FB0F0"/>
<path fill-rule="evenodd" clip-rule="evenodd" d="M32 50C31.4477 50 31 50.4477 31 51L31 54.1707C29.8348 54.5825 29 55.6938 29 57C29 58.6569 30.3431 60 32 60C33.6569 60 35 58.6569 35 57C35 55.6938 34.1652 54.5825 33 54.1707L33 52H47V54.1707C45.8348 54.5825 45 55.6938 45 57C45 58.6569 46.3431 60 48 60C49.6569 60 51 58.6569 51 57C51 55.6938 50.1652 54.5825 49 54.1707V51C49 50.7348 48.8946 50.4804 48.7071 50.2929C48.5196 50.1054 48.2652 50 48 50H41V47C41 46.4477 40.5523 46 40 46C39.4477 46 39 46.4477 39 47V50H32ZM47 57C47 56.4477 47.4477 56 48 56C48.5523 56 49 56.4477 49 57C49 57.5523 48.5523 58 48 58C47.4477 58 47 57.5523 47 57ZM32 56C31.4477 56 31 56.4477 31 57C31 57.5523 31.4477 58 32 58C32.5523 58 33 57.5523 33 57C33 56.4477 32.5523 56 32 56Z" fill="#0FB0F0"/>
<path fill-rule="evenodd" clip-rule="evenodd" d="M54.1707 31L52 31V17L54.1707 17C54.5825 18.1652 55.6938 19 57 19C58.6569 19 60 17.6569 60 16C60 14.3431 58.6569 13 57 13C55.6938 13 54.5825 13.8348 54.1707 15L51 15C50.7348 15 50.4804 15.1054 50.2929 15.2929C50.1054 15.4804 50 15.7348 50 16V23L47 23C46.4477 23 46 23.4477 46 24C46 24.5523 46.4477 25 47 25L50 25V32C50 32.5523 50.4477 33 51 33L54.1707 33C54.5825 34.1652 55.6938 35 57 35C58.6569 35 60 33.6569 60 32C60 30.3431 58.6569 29 57 29C55.6938 29 54.5825 29.8348 54.1707 31ZM57 15C56.4477 15 56 15.4477 56 16C56 16.5523 56.4477 17 57 17C57.5523 17 58 16.5523 58 16C58 15.4477 57.5523 15 57 15ZM57 33C56.4477 33 56 32.5523 56 32C56 31.4477 56.4477 31 57 31C57.5523 31 58 31.4477 58 32C58 32.5523 57.5523 33 57 33Z" fill="#0FB0F0"/>
<path fill-rule="evenodd" clip-rule="evenodd" d="M37 32C37 34.7614 34.7614 37 32 37C29.2386 37 27 34.7614 27 32C27 29.2386 29.2386 27 32 27C34.7614 27 37 29.2386 37 32ZM35 32C35 33.6569 33.6569 35 32 35C30.3431 35 29 33.6569 29 32C29 30.3431 30.3431 29 32 29C33.6569 29 35 30.3431 35 32Z" fill="#0FB0F0"/>
<path fill-rule="evenodd" clip-rule="evenodd" d="M28.6679 20.3254C28.982 18.9642 30.1941 18 31.591 18H32.409C33.8059 18 35.018 18.9642 35.3321 20.3254L35.5548 21.2903C35.7092 21.9595 36.4768 22.2774 37.0592 21.9134L37.899 21.3885C39.0836 20.6481 40.6225 20.8234 41.6103 21.8112L42.1887 22.3896C43.1765 23.3774 43.3518 24.9163 42.6114 26.1009L42.0864 26.9408C41.7225 27.5232 42.0404 28.2907 42.7096 28.4452L43.6746 28.6679C45.0358 28.982 46 30.1941 46 31.591V32.409C46 33.8059 45.0358 35.018 43.6746 35.3321L42.7097 35.5548C42.0405 35.7092 41.7225 36.4768 42.0865 37.0592L42.6113 37.8989C43.3517 39.0835 43.1765 40.6224 42.1887 41.6102L41.6103 42.1886C40.6225 43.1764 39.0836 43.3516 37.899 42.6112L37.0592 42.0864C36.4768 41.7224 35.7093 42.0403 35.5548 42.7095L35.3321 43.6746C35.018 45.0358 33.8059 46 32.409 46H31.591C30.1941 46 28.982 45.0358 28.6679 43.6746L28.4452 42.7095C28.2907 42.0403 27.5232 41.7224 26.9408 42.0864L26.101 42.6112C24.9164 43.3516 23.3775 43.1764 22.3897 42.1886L21.8113 41.6102C20.8235 40.6224 20.6483 39.0835 21.3887 37.8989L21.9135 37.0592C22.2774 36.4768 21.9595 35.7092 21.2903 35.5548L20.3254 35.3321C18.9642 35.018 18 33.8059 18 32.409V31.591C18 30.1941 18.9642 28.982 20.3254 28.6679L21.2904 28.4452C21.9596 28.2907 22.2775 27.5232 21.9136 26.9408L21.3886 26.1009C20.6482 24.9163 20.8235 23.3774 21.8113 22.3896L22.3897 21.8112C23.3775 20.8234 24.9164 20.6481 26.101 21.3885L26.9408 21.9134C27.5232 22.2774 28.2908 21.9595 28.4452 21.2903L28.6679 20.3254ZM31.591 20C31.1254 20 30.7213 20.3214 30.6166 20.7751L30.394 21.74C29.9307 23.7476 27.628 24.7014 25.8808 23.6094L25.041 23.0845C24.6461 22.8377 24.1332 22.8962 23.8039 23.2254L23.2255 23.8038C22.8963 24.1331 22.8378 24.646 23.0846 25.0409L23.6095 25.8808C24.7015 27.628 23.7477 29.9306 21.7401 30.3939L20.7751 30.6166C20.3214 30.7213 20 31.1254 20 31.591V32.409C20 32.8746 20.3214 33.2787 20.7751 33.3834L21.74 33.606C23.7476 34.0693 24.7014 36.372 23.6094 38.1192L23.0847 38.9589C22.8379 39.3537 22.8963 39.8667 23.2255 40.196L23.8039 40.7744C24.1332 41.1036 24.6462 41.162 25.041 40.9152L25.8808 40.3904C27.628 39.2984 29.9306 40.2522 30.3939 42.2598L30.6166 43.2249C30.7213 43.6786 31.1254 44 31.591 44H32.409C32.8746 44 33.2787 43.6786 33.3834 43.2249L33.6061 42.2598C34.0694 40.2522 36.372 39.2984 38.1192 40.3904L38.959 40.9152C39.3538 41.162 39.8668 41.1036 40.1961 40.7744L40.7745 40.196C41.1037 39.8667 41.1621 39.3537 40.9153 38.9589L40.3906 38.1192C39.2986 36.372 40.2524 34.0693 42.26 33.606L43.2249 33.3834C43.6786 33.2787 44 32.8746 44 32.409V31.591C44 31.1254 43.6786 30.7213 43.2249 30.6166L42.2599 30.3939C40.2523 29.9306 39.2985 27.628 40.3904 25.8808L40.9154 25.0409C41.1622 24.646 41.1037 24.1331 40.7745 23.8038L40.1961 23.2254C39.8668 22.8962 39.3539 22.8377 38.959 23.0845L38.1192 23.6094C36.372 24.7014 34.0693 23.7476 33.606 21.74L33.3834 20.7751C33.2787 20.3214 32.8746 20 32.409 20H31.591Z" fill="#0FB0F0"/>
</svg>
