<svg width="64" height="64" viewBox="0 0 64 64" fill="none" xmlns="http://www.w3.org/2000/svg">
<path fill-rule="evenodd" clip-rule="evenodd" d="M18 13C18 11.3431 19.3431 10 21 10H26C27.6569 10 29 11.3431 29 13C29 14.6569 27.6569 16 26 16H24.5V18H28C28.5523 18 29 18.4477 29 19V24C29 24.5523 28.5523 25 28 25H24.5V27.4072L28.2801 30.5H40.5C42.1569 30.5 43.5 31.8431 43.5 33.5V38.1449C44.9457 38.5752 46 39.9145 46 41.5C46 43.0855 44.9457 44.4248 43.5 44.8551V49C43.5 50.6569 42.1569 52 40.5 52H28.8293C28.4175 53.1652 27.3062 54 26 54H21C19.3431 54 18 52.6569 18 51C18 49.3431 19.3431 48 21 48H22.5V45H19C18.4477 45 18 44.5523 18 44V39C18 38.4477 18.4477 38 19 38H22.5V35.5928L18.3552 32.2016C17.8816 31.8141 17.8816 31.1859 18.3552 30.7984L22.5 27.4072V25H19C18.4477 25 18 24.5523 18 24V19C18 18.4477 18.4477 18 19 18H22.5V16H21C19.3431 16 18 14.6569 18 13ZM21 12H26C26.5523 12 27 12.4477 27 13C27 13.5523 26.5523 14 26 14H21C20.4477 14 20 13.5523 20 13C20 12.4477 20.4477 12 21 12ZM41.5 33.5V38.1449C40.3711 38.4809 39.4809 39.3711 39.1449 40.5H29V39C29 38.4477 28.5523 38 28 38H24.5V35.5928L28.2801 32.5H40.5C41.0523 32.5 41.5 32.9477 41.5 33.5ZM29 42.5H39.1449C39.4809 43.6289 40.3711 44.5191 41.5 44.8551V49C41.5 49.5523 41.0523 50 40.5 50H28.8293C28.4175 48.8348 27.3062 48 26 48H24.5V45H28C28.5523 45 29 44.5523 29 44V42.5ZM27 51C27 50.4477 26.5523 50 26 50H21C20.4477 50 20 50.4477 20 51C20 51.5523 20.4477 52 21 52H26C26.5523 52 27 51.5523 27 51ZM20 23V20H27V23H20ZM20 40V43H27V40H20ZM20.6561 31.5L23.5 29.1732L26.3439 31.5L23.5 33.8268L20.6561 31.5ZM42.5 43C43.3284 43 44 42.3284 44 41.5C44 40.6716 43.3284 40 42.5 40C41.6716 40 41 40.6716 41 41.5C41 42.3284 41.6716 43 42.5 43Z" fill="#0FB0F0"/>
<path fill-rule="evenodd" clip-rule="evenodd" d="M53.9998 17.0198L53.9992 17.0396C53.9997 17.0622 54 17.0848 54 17.1075V57C54 58.6569 52.6569 60 51 60H13C11.3431 60 10 58.6569 10 57V7C10 5.34314 11.3431 4 13 4H40.6759C41.4606 4 42.214 4.3074 42.7747 4.85631L53.0987 14.9638C53.6139 15.4682 53.9282 16.139 53.9891 16.8518C53.9963 16.9002 54 16.9496 54 17L53.9998 17.0198ZM13 58H51C51.5523 58 52 57.5523 52 57V18H42C40.3431 18 39 16.6569 39 15V6H13C12.4477 6 12 6.44771 12 7V57C12 57.5523 12.4477 58 13 58ZM41.3755 6.28543C41.2681 6.18032 41.1396 6.10177 41 6.05396V15C41 15.5523 41.4477 16 42 16H51.2983L41.3755 6.28543Z" fill="#0FB0F0"/>
</svg>
