<svg width="64" height="64" viewBox="0 0 64 64" fill="none" xmlns="http://www.w3.org/2000/svg">
<path d="M17 16C17 10.4772 21.4772 6 27 6C30.5819 6 33.725 7.88257 35.4923 10.717C35.7491 11.1287 36.2643 11.2968 36.7144 11.1156C38.5007 10.3963 40.4528 10 42.5 10C51.0604 10 58 16.9396 58 25.5C58 30.737 55.4037 35.3677 51.4236 38.1753C50.9723 38.4936 50.8645 39.1175 51.1828 39.5688C51.5012 40.0201 52.1251 40.1279 52.5764 39.8096C57.065 36.6434 60 31.4145 60 25.5C60 15.835 52.165 8 42.5 8C40.4795 8 38.5371 8.34284 36.7291 8.97413C34.5505 5.96237 31.0048 4 27 4C20.3726 4 15 9.37258 15 16C15 17.0406 15.1327 18.0513 15.3823 19.0156C9.04197 19.3371 4 24.5797 4 31C4 36.0895 7.1681 40.4367 11.6362 42.1816C12.1507 42.3825 12.7306 42.1283 12.9315 41.6139C13.1324 41.0994 12.8782 40.5195 12.3638 40.3186C8.63719 38.8633 6 35.2384 6 31C6 25.4772 10.4772 21 16 21C16.2327 21 16.4635 21.0079 16.6919 21.0235C17.034 21.0469 17.3643 20.8933 17.5668 20.6166C17.7694 20.34 17.8161 19.9788 17.6906 19.6597C17.2451 18.5276 17 17.2936 17 16Z" fill="#0FB0F0"/>
<path fill-rule="evenodd" clip-rule="evenodd" d="M32 33C34.2091 33 36 34.7909 36 37C36 39.2091 34.2091 41 32 41C29.7909 41 28 39.2091 28 37C28 34.7909 29.7909 33 32 33ZM32 35C33.1046 35 34 35.8954 34 37C34 38.1046 33.1046 39 32 39C30.8954 39 30 38.1046 30 37C30 35.8954 30.8954 35 32 35Z" fill="#0FB0F0"/>
<path fill-rule="evenodd" clip-rule="evenodd" d="M31.4335 24.176C31.7747 23.9413 32.2253 23.9413 32.5665 24.176L48.5665 35.176C48.8379 35.3625 49 35.6707 49 36V58H55.5C56.0523 58 56.5 58.4477 56.5 59C56.5 59.5523 56.0523 60 55.5 60H38C37.4477 60 37 59.5523 37 59V47H27V59C27 59.5523 26.5523 60 26 60H9C8.44772 60 8 59.5523 8 59C8 58.4477 8.44772 58 9 58H15V36C15 35.6707 15.1621 35.3625 15.4335 35.176L31.4335 24.176ZM17 58H25V46C25 45.4477 25.4477 45 26 45H38C38.5523 45 39 45.4477 39 46V58H47V36.526L32 26.2135L17 36.526V58Z" fill="#0FB0F0"/>
</svg>
