<svg width="64" height="64" viewBox="0 0 64 64" fill="none" xmlns="http://www.w3.org/2000/svg">
<path d="M49 14C49.5523 14 50 13.5523 50 13C50 12.4477 49.5523 12 49 12C48.4477 12 48 12.4477 48 13C48 13.5523 48.4477 14 49 14Z" fill="#0FB0F0"/>
<path d="M53 13C53 13.5523 52.5523 14 52 14C51.4477 14 51 13.5523 51 13C51 12.4477 51.4477 12 52 12C52.5523 12 53 12.4477 53 13Z" fill="#0FB0F0"/>
<path d="M55 14C55.5523 14 56 13.5523 56 13C56 12.4477 55.5523 12 55 12C54.4477 12 54 12.4477 54 13C54 13.5523 54.4477 14 55 14Z" fill="#0FB0F0"/>
<path fill-rule="evenodd" clip-rule="evenodd" d="M10 41C9.44772 41 9 41.4477 9 42V50C9 50.5523 9.44772 51 10 51H14C14.5523 51 15 50.5523 15 50V42C15 41.4477 14.5523 41 14 41H10ZM11 49V43H13V49H11Z" fill="#0FB0F0"/>
<path fill-rule="evenodd" clip-rule="evenodd" d="M17 37C17 36.4477 17.4477 36 18 36H22C22.5523 36 23 36.4477 23 37V50C23 50.5523 22.5523 51 22 51H18C17.4477 51 17 50.5523 17 50V37ZM19 38V49H21V38H19Z" fill="#0FB0F0"/>
<path fill-rule="evenodd" clip-rule="evenodd" d="M26 30C25.4477 30 25 30.4477 25 31V50C25 50.5523 25.4477 51 26 51H30C30.5523 51 31 50.5523 31 50V31C31 30.4477 30.5523 30 30 30H26ZM27 49V32H29V49H27Z" fill="#0FB0F0"/>
<path fill-rule="evenodd" clip-rule="evenodd" d="M33 24C33 23.4477 33.4477 23 34 23H38C38.5523 23 39 23.4477 39 24V50C39 50.5523 38.5523 51 38 51H34C33.4477 51 33 50.5523 33 50V24ZM35 49H37V25H35V49Z" fill="#0FB0F0"/>
<path fill-rule="evenodd" clip-rule="evenodd" d="M50 23C46.134 23 43 26.134 43 30C43 33.866 46.134 37 50 37C53.866 37 57 33.866 57 30C57 26.134 53.866 23 50 23ZM45 30C45 27.581 46.7178 25.5633 49 25.1V30C49 30.5523 49.4477 31 50 31H54.9C54.4367 33.2822 52.419 35 50 35C47.2386 35 45 32.7614 45 30ZM51 29V25.1C52.9591 25.4977 54.5023 27.0409 54.9 29H51Z" fill="#0FB0F0"/>
<path d="M56.4191 38.592C56.9205 38.8235 57.1394 39.4176 56.908 39.9191L53.908 46.4191C53.7814 46.6933 53.5377 46.8956 53.2449 46.9695C52.9521 47.0435 52.6416 46.9812 52.4 46.8L49.2188 44.4141L45.9432 49H56.5C57.0523 49 57.5 49.4477 57.5 50C57.5 50.5523 57.0523 51 56.5 51H44C43.4477 51 43 50.5523 43 50V40C43 39.4477 43.4477 39 44 39C44.5523 39 45 39.4477 45 40V46.8795L48.1863 42.4188C48.3428 42.1997 48.581 42.0529 48.8471 42.0118C49.1132 41.9706 49.3846 42.0384 49.6 42.2L52.6104 44.4578L55.092 39.0809C55.3235 38.5795 55.9176 38.3606 56.4191 38.592Z" fill="#0FB0F0"/>
<path d="M10 23C9.44772 23 9 23.4477 9 24C9 24.5523 9.44772 25 10 25H18C18.5523 25 19 24.5523 19 24C19 23.4477 18.5523 23 18 23H10Z" fill="#0FB0F0"/>
<path d="M15 27C15 26.4477 15.4477 26 16 26H20C20.5523 26 21 26.4477 21 27C21 27.5523 20.5523 28 20 28H16C15.4477 28 15 27.5523 15 27Z" fill="#0FB0F0"/>
<path d="M10 29C9.44772 29 9 29.4477 9 30C9 30.5523 9.44772 31 10 31H16C16.5523 31 17 30.5523 17 30C17 29.4477 16.5523 29 16 29H10Z" fill="#0FB0F0"/>
<path d="M20 24C20 23.4477 20.4477 23 21 23H25C25.5523 23 26 23.4477 26 24C26 24.5523 25.5523 25 25 25H21C20.4477 25 20 24.5523 20 24Z" fill="#0FB0F0"/>
<path d="M10 26C9.44772 26 9 26.4477 9 27C9 27.5523 9.44772 28 10 28H13C13.5523 28 14 27.5523 14 27C14 26.4477 13.5523 26 13 26H10Z" fill="#0FB0F0"/>
<path fill-rule="evenodd" clip-rule="evenodd" d="M4 54V10C4 8.89543 4.89543 8 6 8H59C60.1046 8 61 8.89543 61 10V54C61 55.1046 60.1046 56 59 56H6C4.89543 56 4 55.1046 4 54ZM59 10H6L6 16H58.5C58.6821 16 58.8529 16.0487 59 16.1338V10ZM58.5 18H6L6 54H59V17.8662C58.8529 17.9513 58.6821 18 58.5 18Z" fill="#0FB0F0"/>
</svg>
