<svg width="64" height="64" viewBox="0 0 64 64" fill="none" xmlns="http://www.w3.org/2000/svg">
<path d="M11 10C10.4477 10 10 10.4477 10 11C10 11.5523 10.4477 12 11 12H19C19.5523 12 20 11.5523 20 11C20 10.4477 19.5523 10 19 10H11Z" fill="#0FB0F0"/>
<path d="M10 17C10 16.4477 10.4477 16 11 16H19C19.5523 16 20 16.4477 20 17C20 17.5523 19.5523 18 19 18H11C10.4477 18 10 17.5523 10 17Z" fill="#0FB0F0"/>
<path d="M11 19C10.4477 19 10 19.4477 10 20C10 20.5523 10.4477 21 11 21H15C15.5523 21 16 20.5523 16 20C16 19.4477 15.5523 19 15 19H11Z" fill="#0FB0F0"/>
<path d="M17 20C17 19.4477 17.4477 19 18 19H19C19.5523 19 20 19.4477 20 20C20 20.5523 19.5523 21 19 21H18C17.4477 21 17 20.5523 17 20Z" fill="#0FB0F0"/>
<path d="M22 19C21.4477 19 21 19.4477 21 20C21 20.5523 21.4477 21 22 21H24C24.5523 21 25 20.5523 25 20C25 19.4477 24.5523 19 24 19H22Z" fill="#0FB0F0"/>
<path d="M21 17C21 16.4477 21.4477 16 22 16H26C26.5523 16 27 16.4477 27 17C27 17.5523 26.5523 18 26 18H22C21.4477 18 21 17.5523 21 17Z" fill="#0FB0F0"/>
<path d="M29 16C28.4477 16 28 16.4477 28 17C28 17.5523 28.4477 18 29 18H31C31.5523 18 32 17.5523 32 17C32 16.4477 31.5523 16 31 16H29Z" fill="#0FB0F0"/>
<path d="M16 14C16 13.4477 16.4477 13 17 13H25C25.5523 13 26 13.4477 26 14C26 14.5523 25.5523 15 25 15H17C16.4477 15 16 14.5523 16 14Z" fill="#0FB0F0"/>
<path d="M27 14C27 13.4477 27.4477 13 28 13H32C32.5523 13 33 13.4477 33 14C33 14.5523 32.5523 15 32 15H28C27.4477 15 27 14.5523 27 14Z" fill="#0FB0F0"/>
<path d="M22 10C21.4477 10 21 10.4477 21 11C21 11.5523 21.4477 12 22 12H26C26.5523 12 27 11.5523 27 11C27 10.4477 26.5523 10 26 10H22Z" fill="#0FB0F0"/>
<path d="M10 14C10 13.4477 10.4477 13 11 13H14C14.5523 13 15 13.4477 15 14C15 14.5523 14.5523 15 14 15H11C10.4477 15 10 14.5523 10 14Z" fill="#0FB0F0"/>
<path fill-rule="evenodd" clip-rule="evenodd" d="M33.683 34.5052C34.2736 35.0219 35.1118 35.1455 35.8264 34.8213C36.5411 34.497 37 33.7848 37 33V28C40.3137 28 43 25.3137 43 22V10C43 6.68629 40.3137 4 37 4H10C6.68629 4 4 6.68629 4 10V22C4 25.3137 6.68629 28 10 28H26.2485L33.683 34.5052ZM36 26C35.4477 26 35 26.4477 35 27V33L27.2828 26.2474C27.1005 26.0879 26.8665 26 26.6243 26H10C7.79086 26 6 24.2091 6 22V10C6 7.79086 7.79086 6 10 6H37C39.2091 6 41 7.79086 41 10V22C41 24.2091 39.2091 26 37 26H36Z" fill="#0FB0F0"/>
<path d="M6 39C6 37.3431 7.34315 36 9 36H18.75C19.3023 36 19.75 35.5523 19.75 35C19.75 34.4477 19.3023 34 18.75 34H9C6.23858 34 4 36.2386 4 39V51C4 53.7614 6.23858 56 9 56H25.6243L31.683 61.3014C32.9762 62.4329 35 61.5145 35 59.7962V56H36C38.7614 56 41 53.7614 41 51V45C41 44.4477 40.5523 44 40 44C39.4477 44 39 44.4477 39 45V51C39 52.6569 37.6569 54 36 54H34C33.4477 54 33 54.4477 33 55V59.7962L26.9413 54.4949C26.5767 54.1758 26.1087 54 25.6243 54H9C7.34315 54 6 52.6569 6 51V39Z" fill="#0FB0F0"/>
<path d="M55 22C56.6569 22 58 23.3431 58 25V37C58 38.6569 56.6569 40 55 40H38.3757C37.8913 40 37.4233 40.1758 37.0587 40.4949L31 45.7962V41C31 40.4477 30.5523 40 30 40H28C26.3431 40 25 38.6569 25 37V31C25 30.4477 24.5523 30 24 30C23.4477 30 23 30.4477 23 31V37C23 39.7614 25.2386 42 28 42H29V45.7962C29 47.5145 31.0238 48.4329 32.317 47.3014L38.3757 42H55C57.7614 42 60 39.7614 60 37V25C60 22.2386 57.7614 20 55 20H47.25C46.6977 20 46.25 20.4477 46.25 21C46.25 21.5523 46.6977 22 47.25 22H55Z" fill="#0FB0F0"/>
<path d="M9 40C9 39.4477 9.44772 39 10 39H16C16.5523 39 17 39.4477 17 40C17 40.5523 16.5523 41 16 41H10C9.44772 41 9 40.5523 9 40Z" fill="#0FB0F0"/>
<path d="M54 25C54.5523 25 55 25.4477 55 26C55 26.5523 54.5523 27 54 27H48C47.4477 27 47 26.5523 47 26C47 25.4477 47.4477 25 48 25H54Z" fill="#0FB0F0"/>
<path d="M10 45C9.44772 45 9 45.4477 9 46C9 46.5523 9.44772 47 10 47H18C18.5523 47 19 46.5523 19 46C19 45.4477 18.5523 45 18 45H10Z" fill="#0FB0F0"/>
<path d="M46 32C46 31.4477 45.5523 31 45 31H44C43.4477 31 43 31.4477 43 32C43 32.5523 43.4477 33 44 33H45C45.5523 33 46 32.5523 46 32Z" fill="#0FB0F0"/>
<path d="M54 34C54.5523 34 55 34.4477 55 35C55 35.5523 54.5523 36 54 36H50C49.4477 36 49 35.5523 49 35C49 34.4477 49.4477 34 50 34H54Z" fill="#0FB0F0"/>
<path d="M55 32C55 31.4477 54.5523 31 54 31H48C47.4477 31 47 31.4477 47 32C47 32.5523 47.4477 33 48 33H54C54.5523 33 55 32.5523 55 32Z" fill="#0FB0F0"/>
<path d="M16 42C15.4477 42 15 42.4477 15 43C15 43.5523 15.4477 44 16 44H18C18.5523 44 19 43.5523 19 43C19 42.4477 18.5523 42 18 42H16Z" fill="#0FB0F0"/>
<path d="M20 46C20 45.4477 20.4477 45 21 45H22C22.5523 45 23 45.4477 23 46C23 46.5523 22.5523 47 22 47H21C20.4477 47 20 46.5523 20 46Z" fill="#0FB0F0"/>
<path d="M48 28C48.5523 28 49 28.4477 49 29C49 29.5523 48.5523 30 48 30H45C44.4477 30 44 29.5523 44 29C44 28.4477 44.4477 28 45 28H48Z" fill="#0FB0F0"/>
<path d="M10 42C9.44772 42 9 42.4477 9 43C9 43.5523 9.44772 44 10 44H13C13.5523 44 14 43.5523 14 43C14 42.4477 13.5523 42 13 42H10Z" fill="#0FB0F0"/>
<path d="M9 49C9 48.4477 9.44772 48 10 48H13C13.5523 48 14 48.4477 14 49C14 49.5523 13.5523 50 13 50H10C9.44772 50 9 49.5523 9 49Z" fill="#0FB0F0"/>
<path d="M54 28C54.5523 28 55 28.4477 55 29C55 29.5523 54.5523 30 54 30H51C50.4477 30 50 29.5523 50 29C50 28.4477 50.4477 28 51 28H54Z" fill="#0FB0F0"/>
</svg>
