<svg width="64" height="64" viewBox="0 0 64 64" fill="none" xmlns="http://www.w3.org/2000/svg">
<path d="M16 30C14.8954 30 14 30.8954 14 32V35C14 35.5523 14.4477 36 15 36C15.5523 36 16 35.5523 16 35V32H19C19.5523 32 20 31.5523 20 31C20 30.4477 19.5523 30 19 30H16Z" fill="#0FB0F0"/>
<path d="M37 30C36.4477 30 36 30.4477 36 31C36 31.5523 36.4477 32 37 32H40V35C40 35.5523 40.4477 36 41 36C41.5523 36 42 35.5523 42 35V32C42 30.8954 41.1046 30 40 30H37Z" fill="#0FB0F0"/>
<path d="M16 44C16 43.4477 15.5523 43 15 43C14.4477 43 14 43.4477 14 44V47C14 48.1046 14.8954 49 16 49H19C19.5523 49 20 48.5523 20 48C20 47.4477 19.5523 47 19 47H16V44Z" fill="#0FB0F0"/>
<path d="M42 44C42 43.4477 41.5523 43 41 43C40.4477 43 40 43.4477 40 44V47H37C36.4477 47 36 47.4477 36 48C36 48.5523 36.4477 49 37 49H40C41.1046 49 42 48.1046 42 47V44Z" fill="#0FB0F0"/>
<path d="M15 19C14.4477 19 14 19.4477 14 20C14 20.5523 14.4477 21 15 21H23C23.5523 21 24 20.5523 24 20C24 19.4477 23.5523 19 23 19H15Z" fill="#0FB0F0"/>
<path d="M14 26C14 25.4477 14.4477 25 15 25H23C23.5523 25 24 25.4477 24 26C24 26.5523 23.5523 27 23 27H15C14.4477 27 14 26.5523 14 26Z" fill="#0FB0F0"/>
<path d="M26 25C25.4477 25 25 25.4477 25 26C25 26.5523 25.4477 27 26 27H30C30.5523 27 31 26.5523 31 26C31 25.4477 30.5523 25 30 25H26Z" fill="#0FB0F0"/>
<path d="M20 23C20 22.4477 20.4477 22 21 22H29C29.5523 22 30 22.4477 30 23C30 23.5523 29.5523 24 29 24H21C20.4477 24 20 23.5523 20 23Z" fill="#0FB0F0"/>
<path d="M32 22C31.4477 22 31 22.4477 31 23C31 23.5523 31.4477 24 32 24H36C36.5523 24 37 23.5523 37 23C37 22.4477 36.5523 22 36 22H32Z" fill="#0FB0F0"/>
<path d="M25 20C25 19.4477 25.4477 19 26 19H30C30.5523 19 31 19.4477 31 20C31 20.5523 30.5523 21 30 21H26C25.4477 21 25 20.5523 25 20Z" fill="#0FB0F0"/>
<path d="M33 19C32.4477 19 32 19.4477 32 20C32 20.5523 32.4477 21 33 21H41C41.5523 21 42 20.5523 42 20C42 19.4477 41.5523 19 41 19H33Z" fill="#0FB0F0"/>
<path d="M14 23C14 22.4477 14.4477 22 15 22H18C18.5523 22 19 22.4477 19 23C19 23.5523 18.5523 24 18 24H15C14.4477 24 14 23.5523 14 23Z" fill="#0FB0F0"/>
<path d="M36.7071 38.2929L32.7071 34.2929C32.3166 33.9024 31.6834 33.9024 31.2929 34.2929C30.9024 34.6834 30.9024 35.3166 31.2929 35.7071L34.5858 39L31.2929 42.2929C30.9024 42.6834 30.9024 43.3166 31.2929 43.7071C31.6834 44.0976 32.3166 44.0976 32.7071 43.7071L36.7071 39.7071C37.0976 39.3166 37.0976 38.6834 36.7071 38.2929Z" fill="#0FB0F0"/>
<path d="M23.2929 34.2929L19.2929 38.2929C18.9024 38.6834 18.9024 39.3166 19.2929 39.7071L23.2929 43.7071C23.6834 44.0976 24.3166 44.0976 24.7071 43.7071C25.0976 43.3166 25.0976 42.6834 24.7071 42.2929L21.4142 39L24.7071 35.7071C25.0976 35.3166 25.0976 34.6834 24.7071 34.2929C24.3166 33.9024 23.6834 33.9024 23.2929 34.2929Z" fill="#0FB0F0"/>
<path d="M29.9701 35.2425C30.1041 34.7067 29.7783 34.1638 29.2425 34.0299C28.7067 33.8959 28.1638 34.2217 28.0299 34.7575L26.0299 42.7575C25.8959 43.2933 26.2217 43.8362 26.7575 43.9701C27.2933 44.1041 27.8362 43.7783 27.9701 43.2425L29.9701 35.2425Z" fill="#0FB0F0"/>
<path fill-rule="evenodd" clip-rule="evenodd" d="M37.8787 4.87868C37.4521 4.45205 36.9102 4.16719 36.3262 4.05441C36.224 4.01915 36.1142 4 36 4C35.9699 4 35.9402 4.00133 35.9108 4.00392C35.8598 4.00131 35.8087 4 35.7574 4H11C9.34315 4 8 5.34314 8 7V53C8 54.6569 9.34315 56 11 56H45C46.6569 56 48 54.6569 48 53V16.2426C48 15.447 47.6839 14.6839 47.1213 14.1213L37.8787 4.87868ZM11 54H45C45.5523 54 46 53.5523 46 53V16.2426C46 16.1601 45.9898 16.0787 45.9701 16H38C36.3431 16 35 14.6569 35 13V6H11C10.4477 6 10 6.44772 10 7V53C10 53.5523 10.4477 54 11 54ZM37 6.82843L44.1716 14H38C37.4477 14 37 13.5523 37 13V6.82843Z" fill="#0FB0F0"/>
<path d="M50.2929 13.2929C50.6834 12.9024 51.3166 12.9024 51.7071 13.2929L51.8284 13.4142C52.5786 14.1644 53 15.1818 53 16.2426V57C53 59.2091 51.2091 61 49 61H14C12.3431 61 11 59.6569 11 58C11 57.4477 11.4477 57 12 57C12.5523 57 13 57.4477 13 58C13 58.5523 13.4477 59 14 59H49C50.1046 59 51 58.1046 51 57V16.2426C51 15.7122 50.7893 15.2035 50.4142 14.8284L50.2929 14.7071C49.9024 14.3166 49.9024 13.6834 50.2929 13.2929Z" fill="#0FB0F0"/>
</svg>
