<svg width="64" height="64" viewBox="0 0 64 64" fill="none" xmlns="http://www.w3.org/2000/svg">
<path d="M44.5 31.5C44.5 30.9477 44.9477 30.5 45.5 30.5H53C53.5523 30.5 54 30.9477 54 31.5C54 32.0523 53.5523 32.5 53 32.5H45.5C44.9477 32.5 44.5 32.0523 44.5 31.5Z" fill="#0FB0F0"/>
<path d="M50.9615 48.7747C51.1132 48.2437 50.8058 47.6902 50.2747 47.5385C49.7437 47.3867 49.1902 47.6942 49.0385 48.2253L48.2457 51H45C44.4477 51 44 51.4477 44 52C44 52.5523 44.4477 53 45 53H48.2457C49.1387 53 49.9234 52.408 50.1687 51.5494L50.9615 48.7747Z" fill="#0FB0F0"/>
<path d="M10.2747 47.5385C9.74369 47.3867 9.1902 47.6942 9.03848 48.2253L8.40268 50.4506C8.03764 51.7282 8.99697 53 10.3257 53H13C13.5523 53 14 52.5523 14 52C14 51.4477 13.5523 51 13 51H10.3257L10.9615 48.7747C11.1132 48.2437 10.8058 47.6902 10.2747 47.5385Z" fill="#0FB0F0"/>
<path d="M19 14C18.4477 14 18 14.4477 18 15C18 15.5523 18.4477 16 19 16H27C27.5523 16 28 15.5523 28 15C28 14.4477 27.5523 14 27 14H19Z" fill="#0FB0F0"/>
<path d="M24 18C24 17.4477 24.4477 17 25 17H32C32.5523 17 33 17.4477 33 18C33 18.5523 32.5523 19 32 19H25C24.4477 19 24 18.5523 24 18Z" fill="#0FB0F0"/>
<path d="M19 20C18.4477 20 18 20.4477 18 21C18 21.5523 18.4477 22 19 22H25C25.5523 22 26 21.5523 26 21C26 20.4477 25.5523 20 25 20H19Z" fill="#0FB0F0"/>
<path d="M18 27C18 26.4477 18.4477 26 19 26H25C25.5523 26 26 26.4477 26 27C26 27.5523 25.5523 28 25 28H19C18.4477 28 18 27.5523 18 27Z" fill="#0FB0F0"/>
<path d="M19 23C18.4477 23 18 23.4477 18 24C18 24.5523 18.4477 25 19 25H22C22.5523 25 23 24.5523 23 24C23 23.4477 22.5523 23 22 23H19Z" fill="#0FB0F0"/>
<path d="M27 27C27 26.4477 27.4477 26 28 26H31C31.5523 26 32 26.4477 32 27C32 27.5523 31.5523 28 31 28H28C27.4477 28 27 27.5523 27 27Z" fill="#0FB0F0"/>
<path d="M19 29C18.4477 29 18 29.4477 18 30C18 30.5523 18.4477 31 19 31H22C22.5523 31 23 30.5523 23 30C23 29.4477 22.5523 29 22 29H19Z" fill="#0FB0F0"/>
<path d="M24 24C24 23.4477 24.4477 23 25 23H30C30.5523 23 31 23.4477 31 24C31 24.5523 30.5523 25 30 25H25C24.4477 25 24 24.5523 24 24Z" fill="#0FB0F0"/>
<path d="M30 14C29.4477 14 29 14.4477 29 15C29 15.5523 29.4477 16 30 16H37C37.5523 16 38 15.5523 38 15C38 14.4477 37.5523 14 37 14H30Z" fill="#0FB0F0"/>
<path d="M39 15C39 14.4477 39.4477 14 40 14H42C42.5523 14 43 14.4477 43 15C43 15.5523 42.5523 16 42 16H40C39.4477 16 39 15.5523 39 15Z" fill="#0FB0F0"/>
<path d="M19 17C18.4477 17 18 17.4477 18 18C18 18.5523 18.4477 19 19 19H22C22.5523 19 23 18.5523 23 18C23 17.4477 22.5523 17 22 17H19Z" fill="#0FB0F0"/>
<path d="M34 18C34 17.4477 34.4477 17 35 17H41C41.5523 17 42 17.4477 42 18C42 18.5523 41.5523 19 41 19H35C34.4477 19 34 18.5523 34 18Z" fill="#0FB0F0"/>
<path d="M44 17C43.4477 17 43 17.4477 43 18C43 18.5523 43.4477 19 44 19H46C46.5523 19 47 18.5523 47 18C47 17.4477 46.5523 17 46 17H44Z" fill="#0FB0F0"/>
<path d="M32 24C32 23.4477 32.4477 23 33 23H36C36.5523 23 37 23.4477 37 24C37 24.5523 36.5523 25 36 25H33C32.4477 25 32 24.5523 32 24Z" fill="#0FB0F0"/>
<path d="M28 20C27.4477 20 27 20.4477 27 21C27 21.5523 27.4477 22 28 22H31C31.5523 22 32 21.5523 32 21C32 20.4477 31.5523 20 31 20H28Z" fill="#0FB0F0"/>
<path d="M33 21C33 20.4477 33.4477 20 34 20H40C40.5523 20 41 20.4477 41 21C41 21.5523 40.5523 22 40 22H34C33.4477 22 33 21.5523 33 21Z" fill="#0FB0F0"/>
<path d="M43 20C42.4477 20 42 20.4477 42 21C42 21.5523 42.4477 22 43 22H45C45.5523 22 46 21.5523 46 21C46 20.4477 45.5523 20 45 20H43Z" fill="#0FB0F0"/>
<path fill-rule="evenodd" clip-rule="evenodd" d="M12 11C12 9.34315 13.3431 8 15 8H49C50.6569 8 52 9.34315 52 11V26H54.7935C57.4217 26 59.3357 28.4913 58.6585 31.0307L52.7918 53.0306C52.3249 54.7817 50.7391 56 48.9269 56H10C6.68629 56 4 53.3137 4 50V20C4 17.2386 6.23858 15 9 15C9.55228 15 10 15.4477 10 16C10 16.5523 9.55228 17 9 17C7.34315 17 6 18.3431 6 20V45.5L7.38065 38.2516C7.74001 36.3649 9.38948 35 11.31 35H12V11ZM11.31 37C10.3497 37 9.52501 37.6825 9.34533 38.6258L7.09526 50.4387C6.74313 52.2873 8.16035 54 10.0423 54H48.9269C49.833 54 50.6259 53.3908 50.8594 52.5153L56.726 30.5153C57.0646 29.2456 56.1076 28 54.7935 28H40.4278C39.9662 28 39.5187 28.1597 39.1614 28.4521L29.819 36.0958C29.1044 36.6805 28.2094 37 27.2861 37H11.31ZM50 26H40.4278C39.5045 26 38.6095 26.3195 37.8949 26.9042L28.5525 34.5479C28.1952 34.8403 27.7478 35 27.2861 35H14V11C14 10.4477 14.4477 10 15 10H49C49.5523 10 50 10.4477 50 11V26Z" fill="#0FB0F0"/>
</svg>
