<svg width="64" height="64" viewBox="0 0 64 64" fill="none" xmlns="http://www.w3.org/2000/svg">
<path d="M12 8C9.79086 8 8 9.79086 8 12V27C8 29.2091 9.79086 31 12 31H14C14.5523 31 15 30.5523 15 30C15 29.4477 14.5523 29 14 29H12C10.8954 29 10 28.1046 10 27V12C10 10.8954 10.8954 10 12 10H27C28.1046 10 29 10.8954 29 12V15C29 15.5523 29.4477 16 30 16C30.5523 16 31 15.5523 31 15V12C31 9.79086 29.2091 8 27 8H12Z" fill="#0FB0F0"/>
<path d="M31 23C31 22.4477 30.5523 22 30 22C29.4477 22 29 22.4477 29 23V27C29 28.1046 28.1046 29 27 29H22C21.4477 29 21 29.4477 21 30C21 30.5523 21.4477 31 22 31H27C29.2091 31 31 29.2091 31 27V23Z" fill="#0FB0F0"/>
<path d="M39.2929 13.2929C39.6834 12.9024 40.3166 12.9024 40.7071 13.2929L45.7071 18.2929C46.0976 18.6834 46.0976 19.3166 45.7071 19.7071L40.7071 24.7071C40.3166 25.0976 39.6834 25.0976 39.2929 24.7071C38.9024 24.3166 38.9024 23.6834 39.2929 23.2929L42.5858 20H31.517C25.0738 20 19.768 24.8621 19.0764 31.11C19.0157 31.6589 18.5214 32.0547 17.9725 31.9939C17.4236 31.9332 17.0278 31.4389 17.0886 30.89C17.8912 23.6381 24.0451 18 31.517 18H42.5858L39.2929 14.7071C38.9024 14.3166 38.9024 13.6834 39.2929 13.2929Z" fill="#0FB0F0"/>
<path d="M44.9869 34.0171C45.5297 34.1189 45.8873 34.6414 45.7855 35.1843C45.0519 39.0971 42.747 42.453 39.5538 44.5769C39.094 44.8828 38.4732 44.758 38.1673 44.2981C37.8615 43.8383 37.9863 43.2175 38.4462 42.9117C41.2033 41.0778 43.1885 38.1829 43.8198 34.8157C43.9215 34.2729 44.4441 33.9154 44.9869 34.0171Z" fill="#0FB0F0"/>
<path d="M19.1844 38.1242C19.6681 37.8576 20.2763 38.0337 20.5429 38.5174C22.6011 42.2523 26.513 44.8211 31.0375 44.991C31.5894 45.0117 32.02 45.4759 31.9993 46.0278C31.9786 46.5797 31.5144 47.0103 30.9625 46.9896C25.7114 46.7924 21.176 43.81 18.7913 39.4826C18.5247 38.9989 18.7007 38.3907 19.1844 38.1242Z" fill="#0FB0F0"/>
<path d="M8 38C8 35.7909 9.79086 34 12 34H27C29.2091 34 31 35.7909 31 38V42C31 42.5523 30.5523 43 30 43C29.4477 43 29 42.5523 29 42V38C29 36.8954 28.1046 36 27 36H12C10.8954 36 10 36.8954 10 38V53C10 54.1046 10.8954 55 12 55H27C28.1046 55 29 54.1046 29 53V50C29 49.4477 29.4477 49 30 49C30.5523 49 31 49.4477 31 50V53C31 55.2091 29.2091 57 27 57H12C9.79086 57 8 55.2091 8 53V38Z" fill="#0FB0F0"/>
<path d="M36 38C36 36.8954 36.8954 36 38 36H41C41.5523 36 42 35.5523 42 35C42 34.4477 41.5523 34 41 34H38C35.7909 34 34 35.7909 34 38V53C34 55.2091 35.7909 57 38 57H53C55.2091 57 57 55.2091 57 53V38C57 35.7909 55.2091 34 53 34H49C48.4477 34 48 34.4477 48 35C48 35.5523 48.4477 36 49 36H53C54.1046 36 55 36.8954 55 38V53C55 54.1046 54.1046 55 53 55H38C36.8954 55 36 54.1046 36 53V38Z" fill="#0FB0F0"/>
</svg>
