<svg width="64" height="64" viewBox="0 0 64 64" fill="none" xmlns="http://www.w3.org/2000/svg">
<path d="M50 13C50 13.5523 49.5523 14 49 14C48.4477 14 48 13.5523 48 13C48 12.4477 48.4477 12 49 12C49.5523 12 50 12.4477 50 13Z" fill="#0FB0F0"/>
<path d="M52 14C52.5523 14 53 13.5523 53 13C53 12.4477 52.5523 12 52 12C51.4477 12 51 12.4477 51 13C51 13.5523 51.4477 14 52 14Z" fill="#0FB0F0"/>
<path d="M56 13C56 13.5523 55.5523 14 55 14C54.4477 14 54 13.5523 54 13C54 12.4477 54.4477 12 55 12C55.5523 12 56 12.4477 56 13Z" fill="#0FB0F0"/>
<path d="M32 29C32 28.4477 32.4477 28 33 28H41C41.5523 28 42 28.4477 42 29C42 29.5523 41.5523 30 41 30H33C32.4477 30 32 29.5523 32 29Z" fill="#0FB0F0"/>
<path d="M39 31C38.4477 31 38 31.4477 38 32C38 32.5523 38.4477 33 39 33H46C46.5523 33 47 32.5523 47 32C47 31.4477 46.5523 31 46 31H39Z" fill="#0FB0F0"/>
<path d="M32 35C32 34.4477 32.4477 34 33 34H39C39.5523 34 40 34.4477 40 35C40 35.5523 39.5523 36 39 36H33C32.4477 36 32 35.5523 32 35Z" fill="#0FB0F0"/>
<path d="M33 40C32.4477 40 32 40.4477 32 41C32 41.5523 32.4477 42 33 42H39C39.5523 42 40 41.5523 40 41C40 40.4477 39.5523 40 39 40H33Z" fill="#0FB0F0"/>
<path d="M32 38C32 37.4477 32.4477 37 33 37H36C36.5523 37 37 37.4477 37 38C37 38.5523 36.5523 39 36 39H33C32.4477 39 32 38.5523 32 38Z" fill="#0FB0F0"/>
<path d="M42 40C41.4477 40 41 40.4477 41 41C41 41.5523 41.4477 42 42 42H45C45.5523 42 46 41.5523 46 41C46 40.4477 45.5523 40 45 40H42Z" fill="#0FB0F0"/>
<path d="M32 44C32 43.4477 32.4477 43 33 43H36C36.5523 43 37 43.4477 37 44C37 44.5523 36.5523 45 36 45H33C32.4477 45 32 44.5523 32 44Z" fill="#0FB0F0"/>
<path d="M39 37C38.4477 37 38 37.4477 38 38C38 38.5523 38.4477 39 39 39H44C44.5523 39 45 38.5523 45 38C45 37.4477 44.5523 37 44 37H39Z" fill="#0FB0F0"/>
<path d="M43 29C43 28.4477 43.4477 28 44 28H51C51.5523 28 52 28.4477 52 29C52 29.5523 51.5523 30 51 30H44C43.4477 30 43 29.5523 43 29Z" fill="#0FB0F0"/>
<path d="M33 31C32.4477 31 32 31.4477 32 32C32 32.5523 32.4477 33 33 33H36C36.5523 33 37 32.5523 37 32C37 31.4477 36.5523 31 36 31H33Z" fill="#0FB0F0"/>
<path d="M48 32C48 31.4477 48.4477 31 49 31H50C50.5523 31 51 31.4477 51 32C51 32.5523 50.5523 33 50 33H49C48.4477 33 48 32.5523 48 32Z" fill="#0FB0F0"/>
<path d="M47 37C46.4477 37 46 37.4477 46 38C46 38.5523 46.4477 39 47 39H48C48.5523 39 49 38.5523 49 38C49 37.4477 48.5523 37 48 37H47Z" fill="#0FB0F0"/>
<path d="M41 35C41 34.4477 41.4477 34 42 34H45C45.5523 34 46 34.4477 46 35C46 35.5523 45.5523 36 45 36H42C41.4477 36 41 35.5523 41 35Z" fill="#0FB0F0"/>
<path fill-rule="evenodd" clip-rule="evenodd" d="M15 34C15.2968 34 15.5634 34.1293 15.7465 34.3346C15.9042 34.5114 16 34.7445 16 35V45C16 45.5523 15.5523 46 15 46C14.4477 46 14 46.4477 14 47C14 47.5523 14.4477 48 15 48H23C23.5523 48 24 47.5523 24 47C24 46.4477 23.5523 46 23 46C22.4477 46 22 45.5523 22 45V34C22 33.4477 21.5523 33 21 33H14.5C14.2239 33 14 33.2239 14 33.5C14 33.7761 14.2239 34 14.5 34H15ZM18 45V35H20V45C20 45.3506 20.0602 45.6872 20.1707 46H17.8293C17.9398 45.6872 18 45.3506 18 45Z" fill="#0FB0F0"/>
<path fill-rule="evenodd" clip-rule="evenodd" d="M19 30C20.6569 30 22 28.6569 22 27C22 25.3431 20.6569 24 19 24C17.3431 24 16 25.3431 16 27C16 28.6569 17.3431 30 19 30ZM20 27C20 27.5523 19.5523 28 19 28C18.4477 28 18 27.5523 18 27C18 26.4477 18.4477 26 19 26C19.5523 26 20 26.4477 20 27Z" fill="#0FB0F0"/>
<path fill-rule="evenodd" clip-rule="evenodd" d="M4 54C4 55.1046 4.89543 56 6 56H59C60.1046 56 61 55.1046 61 54V10C61 8.89543 60.1046 8 59 8H6C4.89543 8 4 8.89543 4 10V54ZM6 10H59V16.1338C58.8529 16.0487 58.6821 16 58.5 16H6L6 10ZM6 18H58.5C58.6821 18 58.8529 17.9513 59 17.8662V54H6L6 18Z" fill="#0FB0F0"/>
</svg>
