<svg width="64" height="64" viewBox="0 0 64 64" fill="none" xmlns="http://www.w3.org/2000/svg">
<path fill-rule="evenodd" clip-rule="evenodd" d="M55 45C57.7614 45 60 42.7614 60 40V9C60 6.23857 57.7614 4 55 4H24C21.2386 4 19 6.23857 19 9V16C19 16.5523 19.4477 17 20 17C20.5523 17 21 16.5523 21 16V9C21 7.34315 22.3431 6 24 6H50.9996C50.3719 6.83566 50 7.87439 50 9C50 11.7614 52.2386 14 55 14C56.1256 14 57.1643 13.6281 58 13.0004V40C58 41.6569 56.6569 43 55 43H24C22.3431 43 21 41.6569 21 40V26.4142L26.2929 31.7071C26.6834 32.0976 27.3166 32.0976 27.7071 31.7071C28.0976 31.3166 28.0976 30.6834 27.7071 30.2929L20.7071 23.2929C20.3166 22.9024 19.6834 22.9024 19.2929 23.2929L12.2929 30.2929C11.9024 30.6834 11.9024 31.3166 12.2929 31.7071C12.6834 32.0976 13.3166 32.0976 13.7071 31.7071L19 26.4142V40C19 42.7614 21.2386 45 24 45H55ZM52 9C52 7.34315 53.3431 6 55 6C56.6569 6 58 7.34315 58 9C58 10.6569 56.6569 12 55 12C53.3431 12 52 10.6569 52 9Z" fill="#0FB0F0"/>
<path fill-rule="evenodd" clip-rule="evenodd" d="M9 19C6.23858 19 4 21.2386 4 24V55C4 57.7614 6.23858 60 9 60H40C42.7614 60 45 57.7614 45 55V48C45 47.4477 44.5523 47 44 47C43.4477 47 43 47.4477 43 48V55C43 56.6569 41.6569 58 40 58H13.0004C13.6281 57.1643 14 56.1256 14 55C14 52.2386 11.7614 50 9 50C7.87439 50 6.83566 50.3719 6 50.9996V24C6 22.3431 7.34315 21 9 21H40C41.6569 21 43 22.3431 43 24V37.5858L37.7071 32.2929C37.3166 31.9024 36.6834 31.9024 36.2929 32.2929C35.9024 32.6834 35.9024 33.3166 36.2929 33.7071L43.2929 40.7071C43.6834 41.0976 44.3166 41.0976 44.7071 40.7071L51.7071 33.7071C52.0976 33.3166 52.0976 32.6834 51.7071 32.2929C51.3166 31.9024 50.6834 31.9024 50.2929 32.2929L45 37.5858V24C45 21.2386 42.7614 19 40 19H9ZM12 55C12 56.6569 10.6569 58 9 58C7.34315 58 6 56.6569 6 55C6 53.3431 7.34315 52 9 52C10.6569 52 12 53.3431 12 55Z" fill="#0FB0F0"/>
</svg>
