<svg width="64" height="64" viewBox="0 0 64 64" fill="none" xmlns="http://www.w3.org/2000/svg">
<path d="M8 9C8 8.44772 8.44772 8 9 8H17C17.5523 8 18 8.44772 18 9C18 9.55228 17.5523 10 17 10H11.4142L17.7071 16.2929C18.0976 16.6834 18.0976 17.3166 17.7071 17.7071C17.3166 18.0976 16.6834 18.0976 16.2929 17.7071L10 11.4142V17C10 17.5523 9.55228 18 9 18C8.44772 18 8 17.5523 8 17V9Z" fill="#0FB0F0"/>
<path d="M8 55C8 55.5523 8.44772 56 9 56H17C17.5523 56 18 55.5523 18 55C18 54.4477 17.5523 54 17 54H11.4142L17.7071 47.7071C18.0976 47.3166 18.0976 46.6834 17.7071 46.2929C17.3166 45.9024 16.6834 45.9024 16.2929 46.2929L10 52.5858V47C10 46.4477 9.55228 46 9 46C8.44772 46 8 46.4477 8 47V55Z" fill="#0FB0F0"/>
<path d="M55 8C55.5523 8 56 8.44772 56 9V17C56 17.5523 55.5523 18 55 18C54.4477 18 54 17.5523 54 17V11.4142L47.7071 17.7071C47.3166 18.0976 46.6834 18.0976 46.2929 17.7071C45.9024 17.3166 45.9024 16.6834 46.2929 16.2929L52.5858 10H47C46.4477 10 46 9.55228 46 9C46 8.44772 46.4477 8 47 8H55Z" fill="#0FB0F0"/>
<path d="M56 55C56 55.5523 55.5523 56 55 56H47C46.4477 56 46 55.5523 46 55C46 54.4477 46.4477 54 47 54H52.5858L46.2929 47.7071C45.9024 47.3166 45.9024 46.6834 46.2929 46.2929C46.6834 45.9024 47.3166 45.9024 47.7071 46.2929L54 52.5858V47C54 46.4477 54.4477 46 55 46C55.5523 46 56 46.4477 56 47V55Z" fill="#0FB0F0"/>
<path fill-rule="evenodd" clip-rule="evenodd" d="M32.6075 10.2056C32.2489 9.93145 31.7511 9.93145 31.3925 10.2056L14.3925 23.2056C14.1477 23.3929 14.0029 23.6826 14 23.9909C13.9972 24.2991 14.1367 24.5914 14.3781 24.7831L31.3781 38.2831C31.7423 38.5723 32.2577 38.5723 32.6219 38.2831L49.6219 24.7831C49.8633 24.5914 50.0028 24.2991 50 23.9909C49.9971 23.6826 49.8523 23.3929 49.6074 23.2056L32.6075 10.2056ZM32 36.223L16.6268 24.0149L32 12.2589L47.3732 24.0149L32 36.223Z" fill="#0FB0F0"/>
<path d="M17.7558 29.8926C18.0913 30.3313 18.0076 30.9589 17.5689 31.2944L16.6268 32.0148L32 44.2229L47.3732 32.0148L46.4311 31.2944C45.9924 30.9589 45.9088 30.3313 46.2442 29.8926C46.5797 29.4538 47.2073 29.3702 47.646 29.7056L49.6074 31.2055C49.8523 31.3928 49.9971 31.6825 50 31.9908C50.0028 32.299 49.8633 32.5913 49.6219 32.783L32.6219 46.283C32.2577 46.5722 31.7423 46.5722 31.3781 46.283L14.3781 32.783C14.1367 32.5913 13.9972 32.299 14 31.9908C14.0029 31.6825 14.1477 31.3928 14.3925 31.2055L16.354 29.7056C16.7927 29.3702 17.4203 29.4538 17.7558 29.8926Z" fill="#0FB0F0"/>
<path d="M17.5689 39.2943C18.0076 38.9589 18.0913 38.3313 17.7558 37.8925C17.4203 37.4538 16.7927 37.3701 16.354 37.7056L14.3925 39.2055C14.1477 39.3928 14.0029 39.6825 14 39.9907C13.9972 40.299 14.1367 40.5913 14.3781 40.783L31.3781 54.283C31.7423 54.5722 32.2577 54.5722 32.6219 54.283L49.6219 40.783C49.8633 40.5913 50.0028 40.299 50 39.9907C49.9971 39.6825 49.8523 39.3928 49.6074 39.2055L47.646 37.7056C47.2073 37.3701 46.5797 37.4538 46.2442 37.8925C45.9088 38.3313 45.9924 38.9589 46.4311 39.2943L47.3732 40.0148L32 52.2229L16.6268 40.0148L17.5689 39.2943Z" fill="#0FB0F0"/>
</svg>
