<svg width="64" height="64" viewBox="0 0 64 64" fill="none" xmlns="http://www.w3.org/2000/svg">
<path fill-rule="evenodd" clip-rule="evenodd" d="M11 6C9.89543 6 9 6.89543 9 8V56C9 57.1046 9.89543 58 11 58H48C49.1046 58 50 57.1046 50 56V55C50 54.4477 50.4477 54 51 54C51.5523 54 52 54.4477 52 55V56C52 58.2091 50.2091 60 48 60H11C8.79086 60 7 58.2091 7 56V8C7 5.79086 8.79086 4 11 4H37.676C37.748 4 37.8199 4.00195 37.8916 4.00581C37.9272 4.00197 37.9634 4 38 4C38.1117 4 38.219 4.0183 38.3193 4.05206C39.1276 4.18378 39.8816 4.5616 40.4742 5.14175L50.7983 15.2492C51.0632 15.5086 51.2883 15.801 51.4695 16.1169C51.7852 16.285 52 16.6174 52 17C52 17.1293 51.9755 17.2529 51.9308 17.3664C51.9765 17.609 52 17.857 52 18.1075V21C52 21.5523 51.5523 22 51 22C50.4477 22 50 21.5523 50 21V18.1075C50 18.0715 49.999 18.0357 49.9971 18H40C38.3431 18 37 16.6569 37 15V6H11ZM39 15V6.50103C39.0256 6.52361 39.0506 6.5469 39.0751 6.57087L48.7063 16H40C39.4477 16 39 15.5523 39 15Z" fill="#0FB0F0"/>
<path d="M58 40C58 35.0294 53.9706 31 49 31H41.4142L44.7071 34.2929C45.0976 34.6834 45.0976 35.3166 44.7071 35.7071C44.3166 36.0976 43.6834 36.0976 43.2929 35.7071L38.2929 30.7071C37.9024 30.3166 37.9024 29.6834 38.2929 29.2929L43.2929 24.2929C43.6834 23.9024 44.3166 23.9024 44.7071 24.2929C45.0976 24.6834 45.0976 25.3166 44.7071 25.7071L41.4142 29H49C55.0751 29 60 33.9249 60 40C60 46.0751 55.0751 51 49 51C42.9249 51 38 46.0751 38 40C38 39.4477 38.4477 39 39 39C39.5523 39 40 39.4477 40 40C40 44.9706 44.0294 49 49 49C53.9706 49 58 44.9706 58 40Z" fill="#0FB0F0"/>
<path fill-rule="evenodd" clip-rule="evenodd" d="M19 13C17.3431 13 16 14.3431 16 16C16 17.3113 16.8414 18.4262 18.0137 18.8341C18.0047 18.8881 18 18.9435 18 19V29.1707C16.8348 29.5825 16 30.6938 16 32C16 33.3113 16.8414 34.4262 18.0137 34.8341C18.0047 34.8881 18 34.9435 18 35V45.1707C16.8348 45.5825 16 46.6938 16 48C16 49.6569 17.3431 51 19 51C20.6569 51 22 49.6569 22 48C22 46.6938 21.1652 45.5825 20 45.1707V35C20 34.9435 19.9953 34.8881 19.9863 34.8341C21.1586 34.4262 22 33.3113 22 32C22 30.6938 21.1652 29.5825 20 29.1707V19C20 18.9435 19.9953 18.8881 19.9863 18.8341C21.1586 18.4262 22 17.3113 22 16C22 14.3431 20.6569 13 19 13ZM18 16C18 15.4477 18.4477 15 19 15C19.5523 15 20 15.4477 20 16C20 16.5523 19.5523 17 19 17C18.4477 17 18 16.5523 18 16ZM19 31C18.4477 31 18 31.4477 18 32C18 32.5523 18.4477 33 19 33C19.5523 33 20 32.5523 20 32C20 31.4477 19.5523 31 19 31ZM18 48C18 47.4477 18.4477 47 19 47C19.5523 47 20 47.4477 20 48C20 48.5523 19.5523 49 19 49C18.4477 49 18 48.5523 18 48Z" fill="#0FB0F0"/>
<path d="M24 22C24 21.4477 24.4477 21 25 21H33C33.5523 21 34 21.4477 34 22C34 22.5523 33.5523 23 33 23H25C24.4477 23 24 22.5523 24 22Z" fill="#0FB0F0"/>
<path d="M25 37C24.4477 37 24 37.4477 24 38C24 38.5523 24.4477 39 25 39H31C31.5523 39 32 38.5523 32 38C32 37.4477 31.5523 37 31 37H25Z" fill="#0FB0F0"/>
<path d="M32 25C32 24.4477 32.4477 24 33 24H34C34.5523 24 35 24.4477 35 25C35 25.5523 34.5523 26 34 26H33C32.4477 26 32 25.5523 32 25Z" fill="#0FB0F0"/>
<path d="M31 40C30.4477 40 30 40.4477 30 41C30 41.5523 30.4477 42 31 42H32C32.5523 42 33 41.5523 33 41C33 40.4477 32.5523 40 32 40H31Z" fill="#0FB0F0"/>
<path d="M24 44C24 43.4477 24.4477 43 25 43H26C26.5523 43 27 43.4477 27 44C27 44.5523 26.5523 45 26 45H25C24.4477 45 24 44.5523 24 44Z" fill="#0FB0F0"/>
<path d="M25 27C24.4477 27 24 27.4477 24 28C24 28.5523 24.4477 29 25 29H27C27.5523 29 28 28.5523 28 28C28 27.4477 27.5523 27 27 27H25Z" fill="#0FB0F0"/>
<path d="M35 22C35 21.4477 35.4477 21 36 21H38C38.5523 21 39 21.4477 39 22C39 22.5523 38.5523 23 38 23H36C35.4477 23 35 22.5523 35 22Z" fill="#0FB0F0"/>
<path d="M34 37C33.4477 37 33 37.4477 33 38C33 38.5523 33.4477 39 34 39H35C35.5523 39 36 38.5523 36 38C36 37.4477 35.5523 37 35 37H34Z" fill="#0FB0F0"/>
<path d="M24 25C24 24.4477 24.4477 24 25 24H30C30.5523 24 31 24.4477 31 25C31 25.5523 30.5523 26 30 26H25C24.4477 26 24 25.5523 24 25Z" fill="#0FB0F0"/>
<path d="M25 40C24.4477 40 24 40.4477 24 41C24 41.5523 24.4477 42 25 42H28C28.5523 42 29 41.5523 29 41C29 40.4477 28.5523 40 28 40H25Z" fill="#0FB0F0"/>
</svg>
