<svg width="64" height="64" viewBox="0 0 64 64" fill="none" xmlns="http://www.w3.org/2000/svg">
<path fill-rule="evenodd" clip-rule="evenodd" d="M42 30.5C42 32.9853 39.9853 35 37.5 35C35.0147 35 33 32.9853 33 30.5C33 28.0147 35.0147 26 37.5 26C39.9853 26 42 28.0147 42 30.5ZM40 30.5C40 31.8807 38.8807 33 37.5 33C36.1193 33 35 31.8807 35 30.5C35 29.1193 36.1193 28 37.5 28C38.8807 28 40 29.1193 40 30.5Z" fill="#0FB0F0"/>
<path fill-rule="evenodd" clip-rule="evenodd" d="M34.7436 22.1633C35.0358 20.897 36.1634 20 37.4629 20H37.5368C38.8363 20 39.9639 20.897 40.2561 22.1633C40.3783 22.6925 40.9853 22.944 41.4459 22.6561C42.5479 21.9673 43.9796 22.1303 44.8985 23.0493L44.9507 23.1014C45.8696 24.0204 46.0327 25.452 45.3439 26.5541C45.056 27.0147 45.3074 27.6217 45.8367 27.7438C47.103 28.0361 48 29.1637 48 30.4632V30.5371C48 31.8366 47.103 32.9642 45.8368 33.2564C45.3077 33.3785 45.0563 33.9854 45.3441 34.4459C46.0328 35.5479 45.8698 36.9794 44.9509 37.8983L44.8987 37.9505C43.9797 38.8695 42.5481 39.0325 41.446 38.3437C40.9854 38.0558 40.3783 38.3073 40.2562 38.8366C39.9639 40.1029 38.8363 41 37.5367 41H37.463C36.1634 41 35.0358 40.1029 34.7436 38.8366C34.6214 38.3074 34.0144 38.056 33.5539 38.3438C32.4519 39.0325 31.0203 38.8695 30.1014 37.9506L30.0491 37.8983C29.1302 36.9794 28.9672 35.5479 29.6559 34.4459C29.9437 33.9854 29.6923 33.3785 29.1632 33.2564C27.897 32.9642 27 31.8366 27 30.5371V30.4632C27 29.1637 27.897 28.0361 29.1633 27.7438C29.6926 27.6217 29.944 27.0147 29.6561 26.5541C28.9673 25.452 29.1304 24.0204 30.0493 23.1014L30.1016 23.0492C31.0205 22.1303 32.452 21.9673 33.554 22.656C34.0145 22.9438 34.6215 22.6925 34.7436 22.1633ZM37.4629 22C37.0947 22 36.7752 22.2542 36.6924 22.613C36.2614 24.4805 34.1193 25.3679 32.494 24.352C32.1818 24.1569 31.7761 24.2031 31.5158 24.4634L31.4635 24.5157C31.2031 24.7761 31.1569 25.1818 31.3521 25.4941C32.368 27.1194 31.4807 29.2616 29.613 29.6926C29.2542 29.7754 29 30.095 29 30.4632V30.5371C29 30.9053 29.2541 31.2248 29.6129 31.3076C31.4805 31.7386 32.3677 33.8806 31.3519 35.5059C31.1567 35.8181 31.2029 36.2237 31.4633 36.4841L31.5156 36.5364C31.776 36.7968 32.1816 36.843 32.4939 36.6478C34.1193 35.6319 36.2614 36.5194 36.6924 38.3869C36.7752 38.7458 37.0947 39 37.463 39H37.5367C37.905 39 38.2246 38.7458 38.3074 38.3869C38.7384 36.5192 40.8806 35.6318 42.506 36.6477C42.8184 36.8429 43.2241 36.7967 43.4845 36.5363L43.5367 36.4841C43.7971 36.2237 43.8433 35.8181 43.6481 35.5059C42.6323 33.8806 43.5195 31.7386 45.3871 31.3076C45.7459 31.2248 46 30.9053 46 30.5371V30.4632C46 30.095 45.7458 29.7754 45.387 29.6926C43.5193 29.2616 42.632 27.1194 43.6479 25.4941C43.8431 25.1818 43.7969 24.7761 43.5365 24.5157L43.4843 24.4635C43.2239 24.2031 42.8182 24.1569 42.5059 24.3521C40.8805 25.3679 38.7384 24.4807 38.3074 22.613C38.2245 22.2542 37.905 22 37.5368 22H37.4629Z" fill="#0FB0F0"/>
<path fill-rule="evenodd" clip-rule="evenodd" d="M12 7C12 5.34315 13.3431 4 15 4C16.6569 4 18 5.34315 18 7C18 7.46315 17.895 7.90178 17.7076 8.29342L19.6213 10.2071C19.8089 10.3946 20.0632 10.5 20.3284 10.5H28.1716C28.9672 10.5 29.7303 10.8161 30.2929 11.3787L32.4797 13.5655C33.9226 13.1962 35.437 13 36.9999 13C46.1036 13 53.5632 19.7211 54.815 28.4689C55.0592 30.1752 55.3713 31.8882 56.0887 33.4555L58.7935 39.3644C59.4664 40.8344 58.8534 42.5733 57.4073 43.2963L54.9825 44.5087C54.3706 44.8147 53.9575 45.4122 53.8874 46.0928L53.4536 50.3072C53.2961 51.837 52.0073 53 50.4694 53H46.9999V60H29.9999V54H26.8293C26.4175 55.1652 25.3062 56 24 56C22.3431 56 21 54.6569 21 53C21 51.3431 22.3431 50 24 50C25.3062 50 26.4175 50.8348 26.8293 52H29.9999V48.8784C29.9999 48.1863 29.7583 47.5363 29.3506 47H22.3284C22.0632 47 21.8089 47.1054 21.6213 47.2929L18.2929 50.6213C18.1054 50.8089 18 51.0632 18 51.3284V54.1707C19.1652 54.5825 20 55.6938 20 57C20 58.6569 18.6569 60 17 60C15.3431 60 14 58.6569 14 57C14 55.6938 14.8348 54.5825 16 54.1707V51.3284C16 50.5328 16.3161 49.7697 16.8787 49.2071L20.2071 45.8787C20.7697 45.3161 21.5328 45 22.3284 45H26.6771C26.0411 44.5348 25.4294 44.0339 24.8483 43.5H18.3284C18.0632 43.5 17.8089 43.6054 17.6213 43.7929L13.7076 47.7066C13.895 48.0982 14 48.5369 14 49C14 50.6569 12.6569 52 11 52C9.34315 52 8 50.6569 8 49C8 47.3431 9.34315 46 11 46C11.4631 46 11.9018 46.1049 12.2934 46.2924L16.2071 42.3787C16.7697 41.8161 17.5328 41.5 18.3284 41.5H22.9478C22.4231 40.8649 21.9396 40.1972 21.5043 39.5H18.8284C18.0328 39.5 17.2697 39.1839 16.7071 38.6213L14.3787 36.2929C14.1911 36.1054 13.9368 36 13.6716 36H9.82929C9.41746 37.1652 8.30622 38 7 38C5.34315 38 4 36.6569 4 35C4 33.3431 5.34315 32 7 32C8.30622 32 9.41746 32.8348 9.82929 34H13.6716C14.4672 34 15.2303 34.3161 15.7929 34.8787L18.1213 37.2071C18.3089 37.3946 18.5632 37.5 18.8284 37.5H20.4289C19.5203 35.5028 18.9999 33.3164 18.9999 31H15.8293C15.4175 32.1652 14.3062 33 13 33C11.3431 33 10 31.6569 10 30C10 28.3431 11.3431 27 13 27C14.3062 27 15.4175 27.8348 15.8293 29H19.1083C19.3629 26.6674 20.0581 24.4726 21.1096 22.5H17.8284C17.5632 22.5 17.3089 22.6054 17.1213 22.7929L14.7929 25.1213C14.2303 25.6839 13.4672 26 12.6716 26H9.82929C9.41746 27.1652 8.30622 28 7 28C5.34315 28 4 26.6569 4 25C4 23.3431 5.34315 22 7 22C8.30622 22 9.41746 22.8348 9.82929 24H12.6716C12.9368 24 13.1911 23.8946 13.3787 23.7071L15.7071 21.3787C16.2697 20.8161 17.0328 20.5 17.8284 20.5H22.3511C22.9948 19.6007 23.7196 18.7639 24.5151 18H15.8293C15.4175 19.1652 14.3062 20 13 20C11.3431 20 10 18.6569 10 17C10 15.3431 11.3431 14 13 14C14.3062 14 15.4175 14.8348 15.8293 16H27V16.0057C28.042 15.312 29.1614 14.7242 30.3433 14.2575L28.8787 12.7929C28.6911 12.6054 28.4368 12.5 28.1716 12.5H20.3284C19.5328 12.5 18.7697 12.1839 18.2071 11.6213L16.2934 9.70763C15.9018 9.89505 15.4631 10 15 10C13.3431 10 12 8.65685 12 7ZM15 6C14.4477 6 14 6.44772 14 7C14 7.55228 14.4477 8 15 8C15.5523 8 16 7.55228 16 7C16 6.44772 15.5523 6 15 6ZM24 52C24.5523 52 25 52.4477 25 53C25 53.5523 24.5523 54 24 54C23.4477 54 23 53.5523 23 53C23 52.4477 23.4477 52 24 52ZM8 35C8 34.4477 7.55228 34 7 34C6.44772 34 6 34.4477 6 35C6 35.5523 6.44772 36 7 36C7.55228 36 8 35.5523 8 35ZM7 24C7.55228 24 8 24.4477 8 25C8 25.5523 7.55228 26 7 26C6.44772 26 6 25.5523 6 25C6 24.4477 6.44772 24 7 24ZM42.4999 52C42.4999 51.4477 42.9477 51 43.4999 51H50.4694C50.982 51 51.4116 50.6123 51.4641 50.1024L51.5779 48.997C51.5522 48.999 51.5262 49 51.5 49H49C48.4477 49 48 48.5523 48 48C48 47.4477 48.4477 47 49 47H51.5C51.597 47 51.6907 47.0138 51.7794 47.0396L51.898 45.888C52.0381 44.5268 52.8642 43.3318 54.0881 42.7199L56.5129 41.5074C56.9949 41.2664 57.1993 40.6868 56.975 40.1968L54.2702 34.288C53.4242 32.4398 53.0825 30.4801 52.8352 28.7522C51.7212 20.9678 45.0868 15 36.9999 15C28.1151 15 20.9999 22.1205 20.9999 31C20.9999 36.6058 24.5423 41.5009 29.3745 44.3905C30.8798 45.2907 31.9999 46.9326 31.9999 48.8784V58H44.9999V53H43.4999C42.9477 53 42.4999 52.5523 42.4999 52ZM12 17C12 16.4477 12.4477 16 13 16C13.5523 16 14 16.4477 14 17C14 17.5523 13.5523 18 13 18C12.4477 18 12 17.5523 12 17ZM11 48C10.4477 48 10 48.4477 10 49C10 49.5523 10.4477 50 11 50C11.5523 50 12 49.5523 12 49C12 48.4477 11.5523 48 11 48ZM16 57C16 56.4477 16.4477 56 17 56C17.5523 56 18 56.4477 18 57C18 57.5523 17.5523 58 17 58C16.4477 58 16 57.5523 16 57ZM12 30C12 29.4477 12.4477 29 13 29C13.5523 29 14 29.4477 14 30C14 30.5523 13.5523 31 13 31C12.4477 31 12 30.5523 12 30Z" fill="#0FB0F0"/>
</svg>
