<svg width="64" height="64" viewBox="0 0 64 64" fill="none" xmlns="http://www.w3.org/2000/svg">
<path d="M21.9227 19.3768C22.1356 18.8672 21.8952 18.2815 21.3856 18.0685C20.876 17.8556 20.2903 18.0961 20.0773 18.6056C19.383 20.2672 19 22.0901 19 24C19 24.7314 19.0562 25.4504 19.1646 26.1526C19.2489 26.6984 19.7597 27.0726 20.3055 26.9883C20.8513 26.904 21.2255 26.3932 21.1412 25.8474C21.0483 25.2458 21 24.6289 21 24C21 22.3595 21.3286 20.7984 21.9227 19.3768Z" fill="#0FB0F0"/>
<path d="M43.9227 18.6056C43.7097 18.0961 43.124 17.8556 42.6144 18.0685C42.1048 18.2815 41.8644 18.8672 42.0773 19.3768C42.6714 20.7984 43 22.3595 43 24C43 24.6289 42.9517 25.2458 42.8588 25.8474C42.7745 26.3932 43.1487 26.904 43.6945 26.9883C44.2403 27.0726 44.7511 26.6984 44.8354 26.1526C44.9438 25.4504 45 24.7314 45 24C45 22.0901 44.617 20.2672 43.9227 18.6056Z" fill="#0FB0F0"/>
<path d="M17.2998 14.8761C17.7976 15.1154 18.0071 15.7129 17.7678 16.2107C16.6351 18.5665 16 21.2077 16 23.9999C16 25.6409 16.2193 27.2291 16.6297 28.7374C16.7747 29.2703 16.4602 29.8199 15.9273 29.9649C15.3944 30.1099 14.8448 29.7954 14.6998 29.2625C14.2433 27.5845 14 25.8199 14 23.9999C14 20.9013 14.7054 17.9645 15.9653 15.344C16.2046 14.8463 16.8021 14.6368 17.2998 14.8761Z" fill="#0FB0F0"/>
<path d="M46.7002 14.8761C47.1979 14.6368 47.7954 14.8463 48.0347 15.344C49.2946 17.9645 50 20.9013 50 23.9999C50 25.8199 49.7567 27.5845 49.3002 29.2625C49.1552 29.7954 48.6056 30.1099 48.0727 29.9649C47.5398 29.8199 47.2253 29.2703 47.3703 28.7374C47.7807 27.2291 48 25.6409 48 23.9999C48 21.2077 47.3649 18.5665 46.2322 16.2107C45.9929 15.7129 46.2024 15.1154 46.7002 14.8761Z" fill="#0FB0F0"/>
<path fill-rule="evenodd" clip-rule="evenodd" d="M35 15C35 15.9011 34.6027 16.7094 33.9737 17.2594C35.141 17.5698 36.3217 18.1777 37.3307 19.1827C38.9348 20.7805 40 23.2759 40 26.8695C40 29.7789 40.0071 31.6166 40.4655 33.3156C40.9119 34.9701 41.8108 36.5619 43.7613 38.8515C44.0141 39.1484 44.0714 39.5652 43.9079 39.9192C43.7444 40.2733 43.39 40.5 43 40.5H21C20.61 40.5 20.2556 40.2733 20.0921 39.9192C19.9286 39.5652 19.9859 39.1484 20.2388 38.8515C22.1892 36.5619 23.0882 34.9701 23.5345 33.3156C23.9929 31.6166 24 29.7789 24 26.8695C24 23.2759 25.0652 20.7805 26.6693 19.1827C27.6783 18.1777 28.859 17.5698 30.0263 17.2594C29.3973 16.7094 29 15.9011 29 15C29 13.3431 30.3431 12 32 12C33.6569 12 35 13.3431 35 15ZM33 15C33 15.5523 32.5523 16 32 16C31.4477 16 31 15.5523 31 15C31 14.4477 31.4477 14 32 14C32.5523 14 33 14.4477 33 15ZM28.0807 20.5998C26.9348 21.7411 26 23.6805 26 26.8695L26 26.978C26.0001 29.7538 26.0002 31.8547 25.4655 33.8365C25.0448 35.3957 24.3081 36.8405 23.0795 38.5H40.9206C39.6919 36.8405 38.9552 35.3957 38.5345 33.8365C37.9999 31.8547 37.9999 29.7538 38 26.978L38 26.8695C38 23.6805 37.0652 21.7411 35.9193 20.5998C34.7612 19.4462 33.2801 19 32 19C30.7199 19 29.2389 19.4462 28.0807 20.5998Z" fill="#0FB0F0"/>
<path d="M29.919 42.1058C29.7013 41.5983 29.1134 41.3633 28.6058 41.581C28.0982 41.7987 27.8633 42.3866 28.081 42.8942C28.7346 44.418 30.2359 45.5 32 45.5C33.7641 45.5 35.2654 44.418 35.919 42.8942C36.1367 42.3866 35.9018 41.7987 35.3942 41.581C34.8866 41.3633 34.2987 41.5983 34.081 42.1058C33.7247 42.9365 32.9196 43.5 32 43.5C31.0804 43.5 30.2753 42.9365 29.919 42.1058Z" fill="#0FB0F0"/>
<path fill-rule="evenodd" clip-rule="evenodd" d="M13 4C10.2386 4 8 6.23857 8 9V45C8 47.7614 10.2386 50 13 50H21.5917C22.497 50 23.3539 50.4088 23.9234 51.1124L29.6683 58.2089C30.869 59.6922 33.131 59.6922 34.3317 58.2089L40.0766 51.1124C40.6461 50.4088 41.503 50 42.4083 50H51C53.7614 50 56 47.7614 56 45V9C56 6.23858 53.7614 4 51 4H13ZM10 9C10 7.34315 11.3431 6 13 6H51C52.6569 6 54 7.34315 54 9V45C54 46.6569 52.6569 48 51 48H42.4083C40.8995 48 39.4714 48.6813 38.5221 49.854L32.7772 56.9506C32.377 57.445 31.623 57.445 31.2228 56.9506L25.4779 49.854C24.5286 48.6813 23.1005 48 21.5917 48H13C11.3431 48 10 46.6569 10 45V9Z" fill="#0FB0F0"/>
</svg>
