<svg width="64" height="64" viewBox="0 0 64 64" fill="none" xmlns="http://www.w3.org/2000/svg">
<path d="M36.5692 27.1778C37.0233 27.4922 37.1366 28.1151 36.8222 28.5692L32.3222 35.0692C32.1534 35.313 31.8851 35.4693 31.5898 35.496C31.2945 35.5226 31.0026 35.4168 30.7929 35.2071L27.7929 32.2071C27.4024 31.8166 27.4024 31.1834 27.7929 30.7929C28.1834 30.4024 28.8166 30.4024 29.2071 30.7929L31.3598 32.9456L35.1778 27.4308C35.4922 26.9767 36.1151 26.8634 36.5692 27.1778Z" fill="#0FB0F0"/>
<path fill-rule="evenodd" clip-rule="evenodd" d="M41 31V24.4036C41 23.7631 40.6844 23.0948 40.0332 22.7425C39.0353 22.2028 36.6881 21.1824 33 21.0216V18C33 17.4477 32.5523 17 32 17C31.4477 17 31 17.4477 31 18V21.0216C27.3119 21.1824 24.9647 22.2028 23.9668 22.7425C23.3156 23.0948 23 23.7631 23 24.4036V31H20C19.4477 31 19 31.4477 19 32C19 32.5523 19.4477 33 20 33H23V33.4559C23 35.9261 24.2582 37.6362 25.8229 38.9664C26.5963 39.6239 27.4653 40.2074 28.3173 40.7544C28.5526 40.9055 28.7853 41.0531 29.0153 41.1988L29.0169 41.1999L29.0196 41.2016L29.0209 41.2024C29.6394 41.5945 30.2387 41.9744 30.8169 42.3778C30.8764 42.4193 30.9375 42.4573 31 42.4918L31 42.5V46C31 46.5523 31.4477 47 32 47C32.5523 47 33 46.5523 33 46V42.5L33 42.4918C33.0625 42.4573 33.1236 42.4193 33.1831 42.3778C33.7614 41.9743 34.3603 41.5947 34.9788 41.2026L34.9818 41.2007C35.2127 41.0543 35.4464 40.9062 35.6827 40.7544C36.5347 40.2074 37.4037 39.6239 38.1771 38.9664C39.7418 37.6362 41 35.9261 41 33.4559V33H44C44.5523 33 45 32.5523 45 32C45 31.4477 44.5523 31 44 31H41ZM25 33.4559V24.4582C25.899 23.9869 28.2291 23 32 23C35.7709 23 38.101 23.9869 39 24.4582V33.4559C39 35.1232 38.1956 36.3256 36.8817 37.4426C36.2158 38.0087 35.4415 38.5325 34.6021 39.0715C34.3882 39.2089 34.1685 39.3481 33.9458 39.4893L33.9436 39.4906L33.9419 39.4917C33.3112 39.8915 32.6563 40.3067 32.0388 40.7375C32.0163 40.7532 31.9837 40.7532 31.9612 40.7375C31.3439 40.3068 30.6892 39.8918 30.0587 39.4921C29.8346 39.3501 29.6131 39.2097 29.3979 39.0715C28.5585 38.5325 27.7842 38.0087 27.1183 37.4426C25.8044 36.3256 25 35.1232 25 33.4559Z" fill="#0FB0F0"/>
<path d="M16 18C16 16.8954 16.8954 16 18 16H20C20.5523 16 21 16.4477 21 17C21 17.5523 20.5523 18 20 18H18V20C18 20.5523 17.5523 21 17 21C16.4477 21 16 20.5523 16 20V18Z" fill="#0FB0F0"/>
<path d="M46 16C47.1046 16 48 16.8954 48 18V20C48 20.5523 47.5523 21 47 21C46.4477 21 46 20.5523 46 20V18H44C43.4477 18 43 17.5523 43 17C43 16.4477 43.4477 16 44 16H46Z" fill="#0FB0F0"/>
<path d="M16 46C16 47.1046 16.8954 48 18 48H20C20.5523 48 21 47.5523 21 47C21 46.4477 20.5523 46 20 46H18V44C18 43.4477 17.5523 43 17 43C16.4477 43 16 43.4477 16 44V46Z" fill="#0FB0F0"/>
<path d="M46 48C47.1046 48 48 47.1046 48 46V44C48 43.4477 47.5523 43 47 43C46.4477 43 46 43.4477 46 44V46H44C43.4477 46 43 46.4477 43 47C43 47.5523 43.4477 48 44 48H46Z" fill="#0FB0F0"/>
<path fill-rule="evenodd" clip-rule="evenodd" d="M46 7C46 8.30622 45.1652 9.41746 44 9.82929V13H47C49.2092 13 51 14.7909 51 17V20H54.1707C54.5825 18.8348 55.6938 18 57 18C58.6569 18 60 19.3431 60 21C60 22.6569 58.6569 24 57 24C55.6938 24 54.5825 23.1652 54.1707 22H51V25.9583C51 26.3153 51.1967 26.6377 51.4768 26.8589C52.4046 27.5914 53 28.7262 53 30V31H54.1707C54.5825 29.8348 55.6938 29 57 29C58.6569 29 60 30.3431 60 32C60 33.6569 58.6569 35 57 35C55.6938 35 54.5825 34.1652 54.1707 33H53V34C53 35.2738 52.4046 36.4086 51.4768 37.1411C51.1967 37.3623 51 37.6847 51 38.0417V42H54.1707C54.5825 40.8348 55.6938 40 57 40C58.6569 40 60 41.3431 60 43C60 44.6569 58.6569 46 57 46C55.6938 46 54.5825 45.1652 54.1707 44H51V47C51 49.2091 49.2092 51 47 51H44V54.1707C45.1652 54.5825 46 55.6938 46 57C46 58.6569 44.6569 60 43 60C41.3431 60 40 58.6569 40 57C40 55.6938 40.8348 54.5825 42 54.1707V51H38.0417C37.6847 51 37.3624 51.1967 37.1412 51.4768C36.4086 52.4046 35.2739 53 34 53H33V54.1707C34.1652 54.5825 35 55.6938 35 57C35 58.6569 33.6569 60 32 60C30.3431 60 29 58.6569 29 57C29 55.6938 29.8348 54.5825 31 54.1707V53H30C28.7262 53 27.5914 52.4046 26.8589 51.4768C26.6377 51.1967 26.3153 51 25.9584 51H22V54.1707C23.1652 54.5825 24 55.6938 24 57C24 58.6569 22.6569 60 21 60C19.3431 60 18 58.6569 18 57C18 55.6938 18.8348 54.5825 20 54.1707V51H17C14.7909 51 13 49.2091 13 47V44H9.82929C9.41746 45.1652 8.30622 46 7 46C5.34315 46 4 44.6569 4 43C4 41.3431 5.34315 40 7 40C8.30622 40 9.41746 40.8348 9.82929 42H13V38.0417C13 37.6847 12.8034 37.3623 12.5232 37.1411C11.5955 36.4086 11 35.2738 11 34V33H9.82929C9.41746 34.1652 8.30622 35 7 35C5.34315 35 4 33.6569 4 32C4 30.3431 5.34315 29 7 29C8.30622 29 9.41746 29.8348 9.82929 31H11V30C11 28.7262 11.5955 27.5914 12.5232 26.8589C12.8034 26.6377 13 26.3153 13 25.9583V22H9.82929C9.41746 23.1652 8.30622 24 7 24C5.34315 24 4 22.6569 4 21C4 19.3431 5.34315 18 7 18C8.30622 18 9.41746 18.8348 9.82929 20H13V17C13 14.7909 14.7909 13 17 13H20V9.82929C18.8348 9.41746 18 8.30622 18 7C18 5.34315 19.3431 4 21 4C22.6569 4 24 5.34315 24 7C24 8.30622 23.1652 9.41746 22 9.82929V13H25.9584C26.3153 13 26.6377 12.8033 26.8589 12.5232C27.5914 11.5954 28.7262 11 30 11H31V9.82929C29.8348 9.41746 29 8.30622 29 7C29 5.34315 30.3431 4 32 4C33.6569 4 35 5.34315 35 7C35 8.30622 34.1652 9.41746 33 9.82929V11H34C35.2739 11 36.4086 11.5954 37.1412 12.5232C37.3624 12.8033 37.6847 13 38.0417 13H42V9.82929C40.8348 9.41746 40 8.30622 40 7C40 5.34315 41.3431 4 43 4C44.6569 4 46 5.34315 46 7ZM43 8C43.5523 8 44 7.55228 44 7C44 6.44772 43.5523 6 43 6C42.4477 6 42 6.44772 42 7C42 7.55228 42.4477 8 43 8ZM32 56C31.4477 56 31 56.4477 31 57C31 57.5523 31.4477 58 32 58C32.5523 58 33 57.5523 33 57C33 56.4477 32.5523 56 32 56ZM57 33C56.4477 33 56 32.5523 56 32C56 31.4477 56.4477 31 57 31C57.5523 31 58 31.4477 58 32C58 32.5523 57.5523 33 57 33ZM49 42.9921V38.0417C49 36.9264 49.6048 36.071 50.2374 35.5715C50.7055 35.2019 51 34.6359 51 34V30C51 29.3641 50.7055 28.7981 50.2374 28.4285C49.6047 27.929 49 27.0736 49 25.9583V21.0079L49 21L49 20.9921V17C49 15.8954 48.1046 15 47 15H38.0417C36.9265 15 36.0711 14.3953 35.5715 13.7626C35.2019 13.2945 34.636 13 34 13H30C29.3641 13 28.7981 13.2945 28.4286 13.7626C27.929 14.3953 27.0736 15 25.9584 15H17C15.8955 15 15 15.8954 15 17V25.9583C15 27.0736 14.3953 27.929 13.7626 28.4285C13.2946 28.7981 13 29.3641 13 30V34C13 34.6359 13.2946 35.2019 13.7626 35.5715C14.3953 36.071 15 36.9264 15 38.0417V47C15 48.1046 15.8955 49 17 49H25.9584C27.0736 49 27.929 49.6047 28.4286 50.2374C28.7982 50.7055 29.3641 51 30 51H34C34.636 51 35.2019 50.7055 35.5715 50.2374C36.0711 49.6047 36.9265 49 38.0417 49H47C48.1046 49 49 48.1046 49 47V43.0079L49 43L49 42.9921ZM20 7C20 7.55228 20.4477 8 21 8C21.5523 8 22 7.55228 22 7C22 6.44772 21.5523 6 21 6C20.4477 6 20 6.44772 20 7ZM21 56C20.4477 56 20 56.4477 20 57C20 57.5523 20.4477 58 21 58C21.5523 58 22 57.5523 22 57C22 56.4477 21.5523 56 21 56ZM44 57C44 56.4477 43.5523 56 43 56C42.4477 56 42 56.4477 42 57C42 57.5523 42.4477 58 43 58C43.5523 58 44 57.5523 44 57ZM32 8C32.5523 8 33 7.55228 33 7C33 6.44772 32.5523 6 32 6C31.4477 6 31 6.44772 31 7C31 7.55228 31.4477 8 32 8ZM58 21C58 21.5523 57.5523 22 57 22C56.4477 22 56 21.5523 56 21C56 20.4477 56.4477 20 57 20C57.5523 20 58 20.4477 58 21ZM7 22C6.44772 22 6 21.5523 6 21C6 20.4477 6.44772 20 7 20C7.55228 20 8 20.4477 8 21C8 21.5523 7.55228 22 7 22ZM6 32C6 32.5523 6.44772 33 7 33C7.55228 33 8 32.5523 8 32C8 31.4477 7.55228 31 7 31C6.44772 31 6 31.4477 6 32ZM7 42C6.44772 42 6 42.4477 6 43C6 43.5523 6.44772 44 7 44C7.55228 44 8 43.5523 8 43C8 42.4477 7.55228 42 7 42ZM58 43C58 42.4477 57.5523 42 57 42C56.4477 42 56 42.4477 56 43C56 43.5523 56.4477 44 57 44C57.5523 44 58 43.5523 58 43Z" fill="#0FB0F0"/>
</svg>
