<svg width="64" height="64" viewBox="0 0 64 64" fill="none" xmlns="http://www.w3.org/2000/svg">
<path d="M16 31C14.8954 31 14 31.8954 14 33V35C14 35.5523 14.4477 36 15 36C15.5523 36 16 35.5523 16 35V33H18C18.5523 33 19 32.5523 19 32C19 31.4477 18.5523 31 18 31H16Z" fill="#0FB0F0"/>
<path fill-rule="evenodd" clip-rule="evenodd" d="M28 35C28 34.4477 28.4477 34 29 34H35C35.5523 34 36 34.4477 36 35V40.5H41.5C42.0523 40.5 42.5 40.9477 42.5 41.5V47.5C42.5 48.0523 42.0523 48.5 41.5 48.5H36V54C36 54.5523 35.5523 55 35 55H29C28.4477 55 28 54.5523 28 54V48.5H22.5C21.9477 48.5 21.5 48.0523 21.5 47.5V41.5C21.5 40.9477 21.9477 40.5 22.5 40.5H28V35ZM30 36V41.5C30 42.0523 29.5523 42.5 29 42.5H23.5V46.5H29C29.5523 46.5 30 46.9477 30 47.5V53H34V47.5C34 46.9477 34.4477 46.5 35 46.5H40.5V42.5H35C34.4477 42.5 34 42.0523 34 41.5V36H30Z" fill="#0FB0F0"/>
<path d="M48 31C49.1046 31 50 31.8954 50 33V35C50 35.5523 49.5523 36 49 36C48.4477 36 48 35.5523 48 35V33H46C45.4477 33 45 32.5523 45 32C45 31.4477 45.4477 31 46 31H48Z" fill="#0FB0F0"/>
<path d="M16 57C14.8954 57 14 56.1046 14 55V53C14 52.4477 14.4477 52 15 52C15.5523 52 16 52.4477 16 53V55H18C18.5523 55 19 55.4477 19 56C19 56.5523 18.5523 57 18 57H16Z" fill="#0FB0F0"/>
<path d="M48 57C49.1046 57 50 56.1046 50 55V53C50 52.4477 49.5523 52 49 52C48.4477 52 48 52.4477 48 53V55H46C45.4477 55 45 55.4477 45 56C45 56.5523 45.4477 57 46 57H48Z" fill="#0FB0F0"/>
<path fill-rule="evenodd" clip-rule="evenodd" d="M32.0398 3.00004C32.0094 2.99997 31.9718 3.00017 31.9303 3.00162C31.5379 3.0153 28.6119 3.16214 25.752 4.7135C22.8204 6.30382 20 9.35975 20 15V28H16C13.2386 28 11 30.2386 11 33V55C11 57.7614 13.2386 60 16 60H48C50.7614 60 53 57.7614 53 55V33C53 30.2386 50.7614 28 48 28H26V15C26 13.9934 26.3102 12.4611 27.2115 11.2093C28.0761 10.0085 29.5259 9 32 9C34.4741 9 35.9239 10.0085 36.7885 11.2093C37.6898 12.4611 38 13.9934 38 15V20C38 21.6569 39.3431 23 41 23C42.6569 23 44 21.6569 44 20V15.0364C44 15.0077 43.9998 14.9716 43.9984 14.9303C43.9847 14.5383 43.8382 11.6189 42.2921 8.76239C40.7075 5.83471 37.6621 3.01331 32.0398 3.00004ZM32 5.00041C32.0068 5.00017 32.017 4.99999 32.0351 5.00004C36.8215 5.01133 39.2451 7.33461 40.5332 9.7144C41.8598 12.1654 41.9897 14.7162 41.9996 15C41.9998 15.0071 42 15.0165 42 15.0364V20C42 20.5523 41.5523 21 41 21C40.4477 21 40 20.5523 40 20V15C40 13.6733 39.6102 11.7055 38.4115 10.0407C37.1761 8.32486 35.1259 7 32 7C28.8741 7 26.8239 8.32486 25.5885 10.0407C24.3898 11.7055 24 13.6733 24 15V28H22V15C22 10.1953 24.3239 7.76354 26.7057 6.4715C29.1593 5.1405 31.7158 5.01032 32 5.00041ZM16 30C14.3431 30 13 31.3431 13 33V55C13 56.6569 14.3431 58 16 58H48C49.6569 58 51 56.6569 51 55V33C51 31.3431 49.6569 30 48 30H16Z" fill="#0FB0F0"/>
</svg>
