<svg width="64" height="64" viewBox="0 0 64 64" fill="none" xmlns="http://www.w3.org/2000/svg">
<path d="M50 13C50 13.5523 49.5523 14 49 14C48.4477 14 48 13.5523 48 13C48 12.4477 48.4477 12 49 12C49.5523 12 50 12.4477 50 13Z" fill="#0FB0F0"/>
<path d="M52 14C52.5523 14 53 13.5523 53 13C53 12.4477 52.5523 12 52 12C51.4477 12 51 12.4477 51 13C51 13.5523 51.4477 14 52 14Z" fill="#0FB0F0"/>
<path d="M56 13C56 13.5523 55.5523 14 55 14C54.4477 14 54 13.5523 54 13C54 12.4477 54.4477 12 55 12C55.5523 12 56 12.4477 56 13Z" fill="#0FB0F0"/>
<path fill-rule="evenodd" clip-rule="evenodd" d="M45 28C45 29.3062 44.1652 30.4175 43 30.8293V38C43 44.0751 38.0751 49 32 49C25.9249 49 21 44.0751 21 38C21 31.9249 25.9249 27 32 27H33.5858L30.2929 23.7071C29.9024 23.3166 29.9024 22.6834 30.2929 22.2929C30.6834 21.9024 31.3166 21.9024 31.7071 22.2929L36.7071 27.2929C37.0976 27.6834 37.0976 28.3166 36.7071 28.7071L31.7071 33.7071C31.3166 34.0976 30.6834 34.0976 30.2929 33.7071C29.9024 33.3166 29.9024 32.6834 30.2929 32.2929L33.5858 29H32C27.0294 29 23 33.0294 23 38C23 42.9706 27.0294 47 32 47C36.9706 47 41 42.9706 41 38V30.8293C39.8348 30.4175 39 29.3062 39 28C39 26.3431 40.3431 25 42 25C43.6569 25 45 26.3431 45 28ZM43 28C43 28.5523 42.5523 29 42 29C41.4477 29 41 28.5523 41 28C41 27.4477 41.4477 27 42 27C42.5523 27 43 27.4477 43 28Z" fill="#0FB0F0"/>
<path fill-rule="evenodd" clip-rule="evenodd" d="M4 10C4 8.89543 4.89543 8 6 8H58C59.1046 8 60 8.89543 60 10V55C60 56.1046 59.1046 57 58 57H6C4.89543 57 4 56.1046 4 55V10ZM6 10H58V16H6V10ZM6 18H58V55H6V18Z" fill="#0FB0F0"/>
</svg>
