<svg width="64" height="64" viewBox="0 0 64 64" fill="none" xmlns="http://www.w3.org/2000/svg">
<path fill-rule="evenodd" clip-rule="evenodd" d="M17 49C17 48.4477 17.4477 48 18 48H22C22.5523 48 23 48.4477 23 49V53C23 53.5523 22.5523 54 22 54H18C17.4477 54 17 53.5523 17 53V49ZM19 50V52H21V50H19Z" fill="#0FB0F0"/>
<path fill-rule="evenodd" clip-rule="evenodd" d="M26 43C25.4477 43 25 43.4477 25 44V53C25 53.5523 25.4477 54 26 54H30C30.5523 54 31 53.5523 31 53V44C31 43.4477 30.5523 43 30 43H26ZM27 52V45H29V52H27Z" fill="#0FB0F0"/>
<path fill-rule="evenodd" clip-rule="evenodd" d="M33 38C33 37.4477 33.4477 37 34 37H38C38.5523 37 39 37.4477 39 38V53C39 53.5523 38.5523 54 38 54H34C33.4477 54 33 53.5523 33 53V38ZM35 39V52H37V39H35Z" fill="#0FB0F0"/>
<path fill-rule="evenodd" clip-rule="evenodd" d="M42 30C41.4477 30 41 30.4477 41 31V53C41 53.5523 41.4477 54 42 54H46C46.5523 54 47 53.5523 47 53V31C47 30.4477 46.5523 30 46 30H42ZM43 52V32H45V52H43Z" fill="#0FB0F0"/>
<path d="M19 23C18.4477 23 18 23.4477 18 24C18 24.5523 18.4477 25 19 25H27C27.5523 25 28 24.5523 28 24C28 23.4477 27.5523 23 27 23H19Z" fill="#0FB0F0"/>
<path d="M18 30C18 29.4477 18.4477 29 19 29H27C27.5523 29 28 29.4477 28 30C28 30.5523 27.5523 31 27 31H19C18.4477 31 18 30.5523 18 30Z" fill="#0FB0F0"/>
<path d="M19 32C18.4477 32 18 32.4477 18 33C18 33.5523 18.4477 34 19 34H24C24.5523 34 25 33.5523 25 33C25 32.4477 24.5523 32 24 32H19Z" fill="#0FB0F0"/>
<path d="M29 30C29 29.4477 29.4477 29 30 29H34C34.5523 29 35 29.4477 35 30C35 30.5523 34.5523 31 34 31H30C29.4477 31 29 30.5523 29 30Z" fill="#0FB0F0"/>
<path d="M25 26C24.4477 26 24 26.4477 24 27C24 27.5523 24.4477 28 25 28H33C33.5523 28 34 27.5523 34 27C34 26.4477 33.5523 26 33 26H25Z" fill="#0FB0F0"/>
<path d="M35 27C35 26.4477 35.4477 26 36 26H38C38.5523 26 39 26.4477 39 27C39 27.5523 38.5523 28 38 28H36C35.4477 28 35 27.5523 35 27Z" fill="#0FB0F0"/>
<path d="M30 23C29.4477 23 29 23.4477 29 24C29 24.5523 29.4477 25 30 25H34C34.5523 25 35 24.5523 35 24C35 23.4477 34.5523 23 34 23H30Z" fill="#0FB0F0"/>
<path d="M36 24C36 23.4477 36.4477 23 37 23H38C38.5523 23 39 23.4477 39 24C39 24.5523 38.5523 25 38 25H37C36.4477 25 36 24.5523 36 24Z" fill="#0FB0F0"/>
<path d="M19 26C18.4477 26 18 26.4477 18 27C18 27.5523 18.4477 28 19 28H22C22.5523 28 23 27.5523 23 27C23 26.4477 22.5523 26 22 26H19Z" fill="#0FB0F0"/>
<path fill-rule="evenodd" clip-rule="evenodd" d="M53.9998 17.0198L53.9992 17.0396C53.9997 17.0622 54 17.0848 54 17.1075V57C54 58.6569 52.6569 60 51 60H13C11.3431 60 10 58.6569 10 57V7C10 5.34314 11.3431 4 13 4H40.6759C41.4606 4 42.214 4.3074 42.7747 4.85631L53.0987 14.9638C53.6139 15.4682 53.9282 16.139 53.9891 16.8518C53.9963 16.9002 54 16.9496 54 17L53.9998 17.0198ZM13 58H51C51.5523 58 52 57.5523 52 57V18H42C40.3431 18 39 16.6569 39 15V6H13C12.4477 6 12 6.44771 12 7V57C12 57.5523 12.4477 58 13 58ZM41.3755 6.28543C41.2681 6.18032 41.1396 6.10177 41 6.05396V15C41 15.5523 41.4477 16 42 16H51.2983L41.3755 6.28543Z" fill="#0FB0F0"/>
</svg>
