<svg width="64" height="64" viewBox="0 0 64 64" fill="none" xmlns="http://www.w3.org/2000/svg">
<path fill-rule="evenodd" clip-rule="evenodd" d="M21 4C20.4477 4 20 4.44772 20 5C20 5.55228 20.4477 6 21 6H46.7574C46.8389 6 46.9199 6.00498 47 6.01477V14C47 15.6569 48.3431 17 50 17H57.9852C57.995 17.0801 58 17.1611 58 17.2426V52C58 53.1046 57.1046 54 56 54H47C46.4477 54 46 54.4477 46 55C46 55.5523 46.4477 56 47 56H56C58.2091 56 60 54.2091 60 52V17.2426C60 16.1818 59.5786 15.1644 58.8284 14.4142L49.5858 5.17157C48.8356 4.42143 47.8182 4 46.7574 4H21ZM56.5858 15L49 7.41422V14C49 14.5523 49.4477 15 50 15H56.5858Z" fill="#0FB0F0"/>
<path d="M25.7071 23.2929C25.3166 22.9024 24.6834 22.9024 24.2929 23.2929C23.9024 23.6834 23.9024 24.3166 24.2929 24.7071L27.5858 28H24C17.9249 28 13 32.9249 13 39C13 45.0751 17.9249 50 24 50C30.0751 50 35 45.0751 35 39C35 38.4477 34.5523 38 34 38C33.4477 38 33 38.4477 33 39C33 43.9706 28.9706 48 24 48C19.0294 48 15 43.9706 15 39C15 34.0294 19.0294 30 24 30H27.5858L24.2929 33.2929C23.9024 33.6834 23.9024 34.3166 24.2929 34.7071C24.6834 35.0976 25.3166 35.0976 25.7071 34.7071L30.7071 29.7071C31.0976 29.3166 31.0976 28.6834 30.7071 28.2929L25.7071 23.2929Z" fill="#0FB0F0"/>
<path fill-rule="evenodd" clip-rule="evenodd" d="M33.8787 8.87868C33.4521 8.45205 32.9102 8.16719 32.3262 8.05441C32.224 8.01915 32.1142 8 32 8C31.9699 8 31.9402 8.00133 31.9108 8.00392C31.8598 8.00131 31.8087 8 31.7574 8H7C5.34315 8 4 9.34314 4 11V57C4 58.6569 5.34315 60 7 60H41C42.6569 60 44 58.6569 44 57V48H51C51.5523 48 52 47.5523 52 47C52 46.4477 51.5523 46 51 46H44V45H51C51.5523 45 52 44.5523 52 44C52 43.4477 51.5523 43 51 43H44V42H47C47.5523 42 48 41.5523 48 41C48 40.4477 47.5523 40 47 40H44V38H48C48.5523 38 49 37.5523 49 37C49 36.4477 48.5523 36 48 36H44V35H51C51.5523 35 52 34.5523 52 34C52 33.4477 51.5523 33 51 33H44V26H48C48.5523 26 49 25.5523 49 25C49 24.4477 48.5523 24 48 24H44V23H52C52.5523 23 53 22.5523 53 22C53 21.4477 52.5523 21 52 21H44V20.2426C44 19.447 43.6839 18.6839 43.1213 18.1213L33.8787 8.87868ZM6 57C6 57.5523 6.44772 58 7 58H41C41.5523 58 42 57.5523 42 57V20.2426C42 20.1601 41.9898 20.0787 41.9701 20H34C32.3431 20 31 18.6569 31 17V10H7C6.44771 10 6 10.4477 6 11V57ZM33 10.8284L40.1716 18H34C33.4477 18 33 17.5523 33 17V10.8284Z" fill="#0FB0F0"/>
<path d="M45 28C45 27.4477 45.4477 27 46 27H50C50.5523 27 51 27.4477 51 28C51 28.5523 50.5523 29 50 29H46C45.4477 29 45 28.5523 45 28Z" fill="#0FB0F0"/>
</svg>
