<svg width="64" height="64" viewBox="0 0 64 64" fill="none" xmlns="http://www.w3.org/2000/svg">
<path fill-rule="evenodd" clip-rule="evenodd" d="M58 9.82929C59.1652 9.41746 60 8.30622 60 7C60 5.34315 58.6569 4 57 4C55.3431 4 54 5.34315 54 7C54 8.30622 54.8348 9.41746 56 9.82929V16.1716C56 16.4368 55.8946 16.6911 55.7071 16.8787L50.2934 22.2924C49.9018 22.105 49.4631 22 49 22C47.3431 22 46 23.3431 46 25C46 26.6569 47.3431 28 49 28C50.6569 28 52 26.6569 52 25C52 24.5369 51.8951 24.0982 51.7076 23.7066L57.1213 18.2929C57.6839 17.7303 58 16.9672 58 16.1716V9.82929ZM58 7C58 6.44772 57.5523 6 57 6C56.4477 6 56 6.44772 56 7C56 7.55228 56.4477 8 57 8C57.5523 8 58 7.55228 58 7ZM49 24C49.5523 24 50 24.4477 50 25C50 25.5523 49.5523 26 49 26C48.4477 26 48 25.5523 48 25C48 24.4477 48.4477 24 49 24Z" fill="#0FB0F0"/>
<path fill-rule="evenodd" clip-rule="evenodd" d="M52 38C52 39.3062 51.1652 40.4175 50 40.8293V48.5858L55.7066 54.2924C56.0982 54.1049 56.5369 54 57 54C58.6569 54 60 55.3431 60 57C60 58.6569 58.6569 60 57 60C55.3431 60 54 58.6569 54 57C54 56.5369 54.1049 56.0982 54.2924 55.7066L48.2929 49.7071C48.1054 49.5196 48 49.2652 48 49V40.8293C46.8348 40.4175 46 39.3062 46 38C46 36.3431 47.3431 35 49 35C50.6569 35 52 36.3431 52 38ZM50 38C50 37.4477 49.5523 37 49 37C48.4477 37 48 37.4477 48 38C48 38.5523 48.4477 39 49 39C49.5523 39 50 38.5523 50 38ZM57 56C57.5523 56 58 56.4477 58 57C58 57.5523 57.5523 58 57 58C56.4477 58 56 57.5523 56 57C56 56.4477 56.4477 56 57 56Z" fill="#0FB0F0"/>
<path fill-rule="evenodd" clip-rule="evenodd" d="M16 39.8293C17.1652 39.4175 18 38.3062 18 37C18 35.3431 16.6569 34 15 34C13.3431 34 12 35.3431 12 37C12 38.3062 12.8348 39.4175 14 39.8293V48.5858L8.29341 54.2924C7.90178 54.1049 7.46315 54 7 54C5.34315 54 4 55.3431 4 57C4 58.6569 5.34315 60 7 60C8.65685 60 10 58.6569 10 57C10 56.5369 9.89505 56.0982 9.70763 55.7066L15.7071 49.7071C15.8946 49.5196 16 49.2652 16 49V39.8293ZM15 36C14.4477 36 14 36.4477 14 37C14 37.5523 14.4477 38 15 38C15.5523 38 16 37.5523 16 37C16 36.4477 15.5523 36 15 36ZM6 57C6 56.4477 6.44772 56 7 56C7.55228 56 8 56.4477 8 57C8 57.5523 7.55228 58 7 58C6.44772 58 6 57.5523 6 57Z" fill="#0FB0F0"/>
<path fill-rule="evenodd" clip-rule="evenodd" d="M33 50.8293V54.1707C34.1652 54.5825 35 55.6938 35 57C35 58.6569 33.6569 60 32 60C30.3431 60 29 58.6569 29 57C29 55.6938 29.8348 54.5825 31 54.1707V50.8293C29.8348 50.4175 29 49.3062 29 48C29 46.3431 30.3431 45 32 45C33.6569 45 35 46.3431 35 48C35 49.3062 34.1652 50.4175 33 50.8293ZM32 49C32.5523 49 33 48.5523 33 48C33 47.4477 32.5523 47 32 47C31.4477 47 31 47.4477 31 48C31 48.5523 31.4477 49 32 49ZM32 56C32.5523 56 33 56.4477 33 57C33 57.5523 32.5523 58 32 58C31.4477 58 31 57.5523 31 57C31 56.4477 31.4477 56 32 56Z" fill="#0FB0F0"/>
<path fill-rule="evenodd" clip-rule="evenodd" d="M14.7303 8.24505L17.755 11.2697C18.1342 11.0965 18.5559 11 19 11C20.6569 11 22 12.3431 22 14C22 15.6569 20.6569 17 19 17C17.3431 17 16 15.6569 16 14C16 13.518 16.1137 13.0625 16.3157 12.6589L13.3412 9.68439C12.2179 10.2459 10.8155 10.0582 9.87868 9.12132C8.70711 7.94975 8.70711 6.05025 9.87868 4.87868C11.0503 3.70711 12.9497 3.70711 14.1213 4.87868C15.0316 5.78898 15.2346 7.13874 14.7303 8.24505ZM12.7071 6.29289C13.0976 6.68342 13.0976 7.31658 12.7071 7.70711C12.3166 8.09763 11.6834 8.09763 11.2929 7.70711C10.9024 7.31658 10.9024 6.68342 11.2929 6.29289C11.6834 5.90237 12.3166 5.90237 12.7071 6.29289ZM19 13C18.4477 13 18 13.4477 18 14C18 14.5523 18.4477 15 19 15C19.5523 15 20 14.5523 20 14C20 13.4477 19.5523 13 19 13Z" fill="#0FB0F0"/>
<path d="M36.7634 30.6459C37.1201 30.2243 37.0676 29.5934 36.6459 29.2366C36.2243 28.8799 35.5934 28.9325 35.2366 29.3541L30.4386 35.0244L28.2071 32.7929C27.8166 32.4024 27.1834 32.4024 26.7929 32.7929C26.4024 33.1834 26.4024 33.8166 26.7929 34.2071L29.7929 37.2071C29.9906 37.4049 30.2621 37.5108 30.5416 37.4991C30.821 37.4875 31.0827 37.3594 31.2634 37.146L36.7634 30.6459Z" fill="#0FB0F0"/>
<path fill-rule="evenodd" clip-rule="evenodd" d="M22 33C22 27.4772 26.4772 23 32 23C37.5228 23 42 27.4772 42 33C42 38.5228 37.5228 43 32 43C26.4772 43 22 38.5228 22 33ZM32 25C27.5817 25 24 28.5817 24 33C24 37.4183 27.5817 41 32 41C36.4183 41 40 37.4183 40 33C40 28.5817 36.4183 25 32 25Z" fill="#0FB0F0"/>
<path d="M23.818 12.5166C24.8162 12.1818 25.8859 12 27 12C30.5819 12 33.725 13.8826 35.4923 16.717C35.7491 17.1287 36.2643 17.2968 36.7144 17.1156C38.5007 16.3963 40.4528 16 42.5 16C45.6206 16 48.523 16.9211 50.9538 18.5061C51.4165 18.8077 52.036 18.6772 52.3377 18.2146C52.6393 17.7519 52.5088 17.1324 52.0462 16.8307C49.3003 15.0404 46.0201 14 42.5 14C40.4795 14 38.5371 14.3428 36.7291 14.9741C34.5505 11.9624 31.0048 10 27 10C25.6669 10 24.3826 10.2178 23.182 10.6204C22.6584 10.796 22.3763 11.3629 22.5519 11.8865C22.7275 12.4101 23.2944 12.6922 23.818 12.5166Z" fill="#0FB0F0"/>
<path d="M17.5166 18.818C17.6922 18.2944 17.4101 17.7275 16.8865 17.5519C16.3629 17.3763 15.796 17.6584 15.6204 18.182C15.2178 19.3826 15 20.6669 15 22C15 23.0406 15.1327 24.0513 15.3823 25.0156C9.04197 25.3371 4 30.5797 4 37C4 41.88 6.91284 46.0775 11.0905 47.9527C11.5943 48.1789 12.1861 47.9538 12.4123 47.4499C12.6385 46.9461 12.4134 46.3543 11.9095 46.1281C8.42416 44.5636 6 41.0638 6 37C6 31.4772 10.4772 27 16 27C16.2327 27 16.4635 27.0079 16.6919 27.0235C17.034 27.0469 17.3643 26.8933 17.5668 26.6166C17.7694 26.34 17.8161 25.9788 17.6906 25.6597C17.2451 24.5276 17 23.2936 17 22C17 20.8859 17.1818 19.8162 17.5166 18.818Z" fill="#0FB0F0"/>
<path d="M57.3479 22.2335C57.055 21.7652 56.4381 21.623 55.9698 21.9158C55.5015 22.2087 55.3593 22.8256 55.6521 23.2939C57.1399 25.6731 58 28.4846 58 31.5C58 36.737 55.4037 41.3677 51.4236 44.1753C50.9723 44.4936 50.8645 45.1175 51.1828 45.5688C51.5012 46.0201 52.1251 46.1279 52.5764 45.8096C57.065 42.6434 60 37.4145 60 31.5C60 28.0988 59.0287 24.9213 57.3479 22.2335Z" fill="#0FB0F0"/>
<path d="M45.6807 48.7115C46.2239 48.6117 46.5833 48.0905 46.4835 47.5473C46.3838 47.0041 45.8625 46.6446 45.3193 46.7444C44.4058 46.9122 43.4636 47 42.5 47C42.3427 47 42.1859 46.9977 42.0298 46.993C41.9788 46.9915 41.9282 46.9939 41.8783 47H37.25C36.6977 47 36.25 47.4477 36.25 48C36.25 48.5523 36.6977 49 37.25 49H42C42.0325 49 42.0646 48.9985 42.0962 48.9954C42.2305 48.9985 42.3651 49 42.5 49C43.5854 49 44.6485 48.9011 45.6807 48.7115Z" fill="#0FB0F0"/>
<path d="M19 47C18.4477 47 18 47.4477 18 48C18 48.5523 18.4477 49 19 49H26C26.5523 49 27 48.5523 27 48C27 47.4477 26.5523 47 26 47H19Z" fill="#0FB0F0"/>
</svg>
