<svg width="64" height="64" viewBox="0 0 64 64" fill="none" xmlns="http://www.w3.org/2000/svg">
<path fill-rule="evenodd" clip-rule="evenodd" d="M6 10C6 9.44772 6.44772 9 7 9H57C57.5523 9 58 9.44772 58 10V38C58 38.5523 58.4477 39 59 39C59.5523 39 60 38.5523 60 38V10C60 8.34315 58.6569 7 57 7H7C5.34315 7 4 8.34315 4 10V45C4 46.6569 5.34314 48 7 48H22.1707C22.0602 48.3128 22 48.6494 22 49V53C22 54.6569 23.3431 56 25 56H38C39.6569 56 41 54.6569 41 53V48H43C43.5523 48 44 47.5523 44 47C44 46.4477 43.5523 46 43 46H7C6.44772 46 6 45.5523 6 45V43H22.5C23.0523 43 23.5 42.5523 23.5 42C23.5 41.4477 23.0523 41 22.5 41H6V10ZM25 48C24.4477 48 24 48.4477 24 49V53C24 53.5523 24.4477 54 25 54H38C38.5523 54 39 53.5523 39 53V48H25Z" fill="#0FB0F0"/>
<path d="M37.2634 24.1459C37.6201 23.7243 37.5675 23.0934 37.1459 22.7366C36.7243 22.3799 36.0934 22.4325 35.7366 22.8541L31.0471 28.3962L28.8 25.4C28.4686 24.9582 27.8418 24.8686 27.4 25.2C26.9582 25.5314 26.8686 26.1582 27.2 26.6L29.4471 29.5962C30.218 30.624 31.744 30.6688 32.5739 29.6881L37.2634 24.1459Z" fill="#0FB0F0"/>
<path fill-rule="evenodd" clip-rule="evenodd" d="M32 15C25.9249 15 21 19.9249 21 26C21 32.0751 25.9249 37 32 37C38.0751 37 43 32.0751 43 26C43 19.9249 38.0751 15 32 15ZM23 26C23 21.0294 27.0294 17 32 17C36.9706 17 41 21.0294 41 26C41 30.9706 36.9706 35 32 35C27.0294 35 23 30.9706 23 26Z" fill="#0FB0F0"/>
<path fill-rule="evenodd" clip-rule="evenodd" d="M17 26C17 17.7157 23.7157 11 32 11C40.2843 11 47 17.7157 47 26C47 28.8739 46.1918 31.5591 44.7902 33.8405L47.4853 36.5356C47.9852 37.0355 48.2718 37.6679 48.3451 38.3197C48.9967 38.3166 49.6517 38.525 50.2002 38.9516L58.2789 45.235C60.4823 46.9489 60.6851 50.2061 58.7112 52.18C56.8183 54.0729 53.7208 53.9762 51.9496 51.9689L45.1503 44.263C44.6662 43.7143 44.4176 43.0354 44.4008 42.3532C43.7205 42.2952 43.0561 42.006 42.5356 41.4854L39.8404 38.7903C37.559 40.1918 34.8739 41 32 41C23.7157 41 17 34.2843 17 26ZM32 13C24.8203 13 19 18.8203 19 26C19 33.1797 24.8203 39 32 39C39.1797 39 45 33.1797 45 26C45 18.8203 39.1797 13 32 13ZM41.4931 37.6145L43.9498 40.0712C44.3403 40.4617 44.9735 40.4617 45.364 40.0712L46.0711 39.3641C46.4616 38.9735 46.4616 38.3404 46.0711 37.9499L43.6144 35.4931C42.9796 36.2688 42.2687 36.9797 41.4931 37.6145ZM46.6927 41.5711C46.3194 41.9445 46.3006 42.5438 46.65 42.9398L53.4493 50.6457C54.4572 51.7879 56.2198 51.843 57.297 50.7658C58.4203 49.6425 58.3049 47.789 57.051 46.8137L48.9723 40.5303C48.5742 40.2207 48.0079 40.256 47.6513 40.6126L46.6927 41.5711Z" fill="#0FB0F0"/>
</svg>
