<svg width="64" height="64" viewBox="0 0 64 64" fill="none" xmlns="http://www.w3.org/2000/svg">
<path d="M39.2216 11.811C38.683 11.6887 38.1473 12.0261 38.0249 12.5646C37.9026 13.1032 38.24 13.639 38.7785 13.7613C39.891 14.014 40.9336 14.2871 41.9767 14.5603C42.8019 14.7764 43.6274 14.9926 44.4882 15.1989C46.007 15.5629 47.5258 15.8654 49.0002 15.9651L49.0001 26C49.0001 26.5523 49.4478 27 50.0001 27C50.5523 27 51.0001 26.5523 51.0001 26L51.0002 14H50.0002C48.4599 14 46.7808 13.6917 44.9544 13.2539C44.2044 13.0742 43.3937 12.8627 42.5604 12.6453C41.4576 12.3575 40.3153 12.0595 39.2216 11.811Z" fill="#0FB0F0"/>
<path d="M27.2481 13.8765C27.7831 13.7395 28.1058 13.1948 27.9688 12.6597C27.8319 12.1247 27.2871 11.802 26.7521 11.939C25.9436 12.1459 25.1399 12.3703 24.3539 12.5898L24.1599 12.644C23.3079 12.8817 22.4768 13.1119 21.6573 13.3141C20.0141 13.7197 18.4678 14 17.0001 14H16.0001V26C16.0001 26.5523 16.4478 27 17.0001 27C17.5524 27 18.0001 26.5523 18.0001 26V15.9647C19.3796 15.87 20.7672 15.5938 22.1365 15.2559C22.989 15.0454 23.8471 14.8077 24.6975 14.5704L24.8877 14.5173C25.6779 14.2966 26.4615 14.0779 27.2481 13.8765Z" fill="#0FB0F0"/>
<path d="M49.9422 38.3205C50.1192 37.7974 49.8386 37.2298 49.3155 37.0528C48.7923 36.8757 48.2247 37.1563 48.0477 37.6795C46.7211 41.6001 43.8783 46.0138 38.6027 48.8525C38.1164 49.1142 37.9343 49.7206 38.196 50.207C38.4577 50.6933 39.0641 50.8755 39.5504 50.6138C45.3546 47.4906 48.486 42.624 49.9422 38.3205Z" fill="#0FB0F0"/>
<path d="M18.7549 37.7266C18.6039 37.1954 18.0509 36.8871 17.5196 37.0381C16.9884 37.1891 16.6801 37.7421 16.8311 38.2734C18.0539 42.5765 20.84 47.4689 26.5161 50.6082C26.9994 50.8755 27.6079 50.7004 27.8752 50.2171C28.1425 49.7338 27.9674 49.1254 27.4841 48.8581C22.3806 46.0355 19.8692 41.6476 18.7549 37.7266Z" fill="#0FB0F0"/>
<path d="M33 38C34.1046 38 35 37.1046 35 36C35 34.8954 34.1046 34 33 34C31.8954 34 31 34.8954 31 36C31 37.1046 31.8954 38 33 38Z" fill="#0FB0F0"/>
<path fill-rule="evenodd" clip-rule="evenodd" d="M28 28V24C28 21.2386 30.2386 19 33 19C35.7614 19 38 21.2386 38 24V28H39C40.6569 28 42 29.3431 42 31V39C42 40.6569 40.6569 42 39 42H27C25.3431 42 24 40.6569 24 39V31C24 29.3431 25.3431 28 27 28H28ZM36 24V28H30V24C30 22.3431 31.3431 21 33 21C34.6569 21 36 22.3431 36 24ZM27 30C26.4477 30 26 30.4477 26 31V39C26 39.5523 26.4477 40 27 40H39C39.5523 40 40 39.5523 40 39V31C40 30.4477 39.5523 30 39 30H27Z" fill="#0FB0F0"/>
<path fill-rule="evenodd" clip-rule="evenodd" d="M27.4168 3.80489C29.5413 3.33452 31.5078 3 33.0002 3C34.613 3 36.6376 3.33258 38.7922 3.8044C40.9598 4.27906 43.3258 4.91024 45.636 5.53464L46.2646 5.70465C48.3637 6.27265 50.3976 6.82301 52.211 7.24474C54.2246 7.71301 55.8758 8 57.0002 8H58.0002V24.0718C58.0003 29.784 58.0003 36.8444 54.9082 43.5441C51.7755 50.3315 45.5402 56.6196 33.334 60.9426L33.01 61.0574L32.684 60.9487C20.4395 56.8672 14.2095 50.1835 11.0861 43.1561C7.99961 36.2116 7.99979 29.0344 7.99991 24.0511L8.00006 8H9.00005C10.1263 8 11.8098 7.71234 13.8636 7.2438C15.802 6.80158 17.9905 6.2178 20.2271 5.62119L20.5549 5.53376C22.8951 4.90971 25.2752 4.27904 27.4168 3.80489ZM10 9.95114L9.99991 24C9.99988 26.0762 10.0017 28.458 10.2099 31H14.1707C14.5825 29.8348 15.6938 29 17 29C18.6569 29 20 30.3431 20 32C20 33.6569 18.6569 35 17 35C15.6938 35 14.5825 34.1652 14.1707 33H10.4162C10.7962 36.0255 11.5232 39.2152 12.9138 42.3439C15.6811 48.5702 21.1258 54.6518 32 58.5936V54.8293C30.8348 54.4175 30 53.3062 30 52C30 50.3431 31.3431 49 33 49C34.6569 49 36 50.3431 36 52C36 53.3062 35.1652 54.4175 34 54.8293V58.5678C44.8992 54.4216 50.3351 48.6797 53.0923 42.7059C54.565 39.5149 55.2919 36.2239 55.6507 33H52.8293C52.4175 34.1652 51.3062 35 50 35C48.3431 35 47 33.6569 47 32C47 30.3431 48.3431 29 50 29C51.3062 29 52.4175 29.8348 52.8293 31H55.83C55.9983 28.5839 56.0002 26.2263 56.0002 24V9.95075C54.7816 9.84078 53.3204 9.55611 51.758 9.19276C49.9075 8.76242 47.8384 8.20249 45.7477 7.63673L45.1142 7.46536C42.7995 6.83976 40.478 6.22094 38.3643 5.7581C36.7141 5.39673 35.2302 5.1397 34 5.04268V9.17071C35.1652 9.58254 36 10.6938 36 12C36 13.6569 34.6569 15 33 15C31.3431 15 30 13.6569 30 12C30 10.6938 30.8348 9.58254 32 9.17071V5.0492C30.8622 5.15057 29.4495 5.40327 27.8491 5.75761C25.7563 6.22096 23.4176 6.84029 21.0702 7.46624L20.7284 7.55742C18.5046 8.15062 16.2836 8.7431 14.3084 9.1937C12.7152 9.55717 11.2281 9.84158 10 9.95114ZM33 13C33.5523 13 34 12.5523 34 12C34 11.4477 33.5523 11 33 11C32.4477 11 32 11.4477 32 12C32 12.5523 32.4477 13 33 13ZM51 32C51 32.5523 50.5523 33 50 33C49.4477 33 49 32.5523 49 32C49 31.4477 49.4477 31 50 31C50.5523 31 51 31.4477 51 32ZM33 53C33.5523 53 34 52.5523 34 52C34 51.4477 33.5523 51 33 51C32.4477 51 32 51.4477 32 52C32 52.5523 32.4477 53 33 53ZM18 32C18 32.5523 17.5523 33 17 33C16.4477 33 16 32.5523 16 32C16 31.4477 16.4477 31 17 31C17.5523 31 18 31.4477 18 32Z" fill="#0FB0F0"/>
</svg>
