<svg width="64" height="64" viewBox="0 0 64 64" fill="none" xmlns="http://www.w3.org/2000/svg">
<path d="M49 14C49.5523 14 50 13.5523 50 13C50 12.4477 49.5523 12 49 12C48.4477 12 48 12.4477 48 13C48 13.5523 48.4477 14 49 14Z" fill="#0FB0F0"/>
<path d="M53 13C53 13.5523 52.5523 14 52 14C51.4477 14 51 13.5523 51 13C51 12.4477 51.4477 12 52 12C52.5523 12 53 12.4477 53 13Z" fill="#0FB0F0"/>
<path d="M55 14C55.5523 14 56 13.5523 56 13C56 12.4477 55.5523 12 55 12C54.4477 12 54 12.4477 54 13C54 13.5523 54.4477 14 55 14Z" fill="#0FB0F0"/>
<path fill-rule="evenodd" clip-rule="evenodd" d="M37 39C37 41.7614 34.7614 44 32 44C29.2386 44 27 41.7614 27 39C27 36.2386 29.2386 34 32 34C34.7614 34 37 36.2386 37 39ZM35 39C35 40.6569 33.6569 42 32 42C30.3431 42 29 40.6569 29 39C29 37.3431 30.3431 36 32 36C33.6569 36 35 37.3431 35 39Z" fill="#0FB0F0"/>
<path fill-rule="evenodd" clip-rule="evenodd" d="M28.6679 27.3254C28.982 25.9642 30.1941 25 31.591 25H32.409C33.8059 25 35.018 25.9642 35.3321 27.3254L35.5548 28.2903C35.7092 28.9595 36.4768 29.2774 37.0592 28.9134L37.899 28.3885C39.0836 27.6481 40.6225 27.8234 41.6103 28.8112L42.1887 29.3896C43.1765 30.3774 43.3518 31.9163 42.6114 33.1009L42.0864 33.9408C41.7225 34.5232 42.0404 35.2907 42.7096 35.4452L43.6746 35.6679C45.0358 35.982 46 37.1941 46 38.591V39.409C46 40.8059 45.0358 42.018 43.6746 42.3321L42.7097 42.5548C42.0405 42.7092 41.7225 43.4768 42.0865 44.0592L42.6113 44.8989C43.3517 46.0835 43.1765 47.6224 42.1887 48.6102L41.6103 49.1886C40.6225 50.1764 39.0836 50.3516 37.899 49.6112L37.0592 49.0864C36.4768 48.7224 35.7093 49.0403 35.5548 49.7095L35.3321 50.6746C35.018 52.0358 33.8059 53 32.409 53H31.591C30.1941 53 28.982 52.0358 28.6679 50.6746L28.4452 49.7095C28.2907 49.0403 27.5232 48.7224 26.9408 49.0864L26.101 49.6112C24.9164 50.3516 23.3775 50.1764 22.3897 49.1886L21.8113 48.6102C20.8235 47.6224 20.6483 46.0835 21.3887 44.8989L21.9135 44.0592C22.2774 43.4768 21.9595 42.7092 21.2903 42.5548L20.3254 42.3321C18.9642 42.018 18 40.8059 18 39.409V38.591C18 37.1941 18.9642 35.982 20.3254 35.6679L21.2904 35.4452C21.9596 35.2907 22.2775 34.5232 21.9136 33.9408L21.3886 33.1009C20.6482 31.9163 20.8235 30.3774 21.8113 29.3896L22.3897 28.8112C23.3775 27.8234 24.9164 27.6481 26.101 28.3885L26.9408 28.9134C27.5232 29.2774 28.2908 28.9595 28.4452 28.2903L28.6679 27.3254ZM31.591 27C31.1254 27 30.7213 27.3214 30.6166 27.7751L30.394 28.74C29.9307 30.7476 27.628 31.7014 25.8808 30.6094L25.041 30.0845C24.6461 29.8377 24.1332 29.8962 23.8039 30.2254L23.2255 30.8038C22.8963 31.1331 22.8378 31.646 23.0846 32.0409L23.6095 32.8808C24.7015 34.628 23.7477 36.9306 21.7401 37.3939L20.7751 37.6166C20.3214 37.7213 20 38.1254 20 38.591V39.409C20 39.8746 20.3214 40.2787 20.7751 40.3834L21.74 40.606C23.7476 41.0693 24.7014 43.372 23.6094 45.1192L23.0847 45.9589C22.8379 46.3537 22.8963 46.8667 23.2255 47.196L23.8039 47.7744C24.1332 48.1036 24.6462 48.162 25.041 47.9152L25.8808 47.3904C27.628 46.2984 29.9306 47.2522 30.3939 49.2598L30.6166 50.2249C30.7213 50.6786 31.1254 51 31.591 51H32.409C32.8746 51 33.2787 50.6786 33.3834 50.2249L33.6061 49.2598C34.0694 47.2522 36.372 46.2984 38.1192 47.3904L38.959 47.9152C39.3538 48.162 39.8668 48.1036 40.1961 47.7744L40.7745 47.196C41.1037 46.8667 41.1621 46.3537 40.9153 45.9589L40.3906 45.1192C39.2986 43.372 40.2524 41.0693 42.26 40.606L43.2249 40.3834C43.6786 40.2787 44 39.8746 44 39.409V38.591C44 38.1254 43.6786 37.7213 43.2249 37.6166L42.2599 37.3939C40.2523 36.9306 39.2985 34.628 40.3904 32.8808L40.9154 32.0409C41.1622 31.646 41.1037 31.1331 40.7745 30.8038L40.1961 30.2254C39.8668 29.8962 39.3539 29.8377 38.959 30.0845L38.1192 30.6094C36.372 31.7014 34.0693 30.7476 33.606 28.74L33.3834 27.7751C33.2787 27.3214 32.8746 27 32.409 27H31.591Z" fill="#0FB0F0"/>
<path d="M33 22C33 20.8954 33.8954 20 35 20H54C55.1046 20 56 20.8954 56 22V29C56 30.1046 55.1046 31 54 31H47C46.4477 31 46 30.5523 46 30C46 29.4477 46.4477 29 47 29H54V22H35V23C35 23.5523 34.5523 24 34 24C33.4477 24 33 23.5523 33 23V22Z" fill="#0FB0F0"/>
<path d="M29 20C30.1046 20 31 20.8954 31 22V23C31 23.5523 30.5523 24 30 24C29.4477 24 29 23.5523 29 23V22H10V29H17C17.5523 29 18 29.4477 18 30C18 30.5523 17.5523 31 17 31H10C8.89543 31 8 30.1046 8 29V22C8 20.8954 8.89543 20 10 20H29Z" fill="#0FB0F0"/>
<path d="M46 34C46 33.4477 46.4477 33 47 33H54C55.1046 33 56 33.8954 56 35V51C56 52.1046 55.1046 53 54 53H43C42.4477 53 42 52.5523 42 52C42 51.4477 42.4477 51 43 51H54V35H47C46.4477 35 46 34.5523 46 34Z" fill="#0FB0F0"/>
<path d="M17 33C17.5523 33 18 33.4477 18 34C18 34.5523 17.5523 35 17 35H10V51H21C21.5523 51 22 51.4477 22 52C22 52.5523 21.5523 53 21 53H10C8.89543 53 8 52.1046 8 51V35C8 33.8954 8.89543 33 10 33H17Z" fill="#0FB0F0"/>
<path fill-rule="evenodd" clip-rule="evenodd" d="M4 10V55C4 56.1046 4.89543 57 6 57H58C59.1046 57 60 56.1046 60 55V10C60 8.89543 59.1046 8 58 8H6C4.89543 8 4 8.89543 4 10ZM58 10H6V16H58V10ZM58 18H6V55H58V18Z" fill="#0FB0F0"/>
</svg>
