<svg width="64" height="64" viewBox="0 0 64 64" fill="none" xmlns="http://www.w3.org/2000/svg">
<path d="M17 16C17 10.4772 21.4772 6 27 6C30.5819 6 33.725 7.88257 35.4923 10.717C35.7491 11.1287 36.2643 11.2968 36.7144 11.1156C38.5007 10.3963 40.4528 10 42.5 10C51.0604 10 58 16.9396 58 25.5C58 31.522 54.566 36.7437 49.5448 39.3105C49.0531 39.5619 48.8582 40.1643 49.1096 40.656C49.361 41.1478 49.9634 41.3427 50.4552 41.0913C56.119 38.196 60 32.3021 60 25.5C60 15.835 52.165 8 42.5 8C40.4795 8 38.5371 8.34284 36.7291 8.97413C34.5505 5.96237 31.0048 4 27 4C20.3726 4 15 9.37258 15 16C15 17.0406 15.1327 18.0513 15.3823 19.0156C9.04197 19.3371 4 24.5797 4 31C4 36.8834 8.23301 41.776 13.8193 42.8022C14.3625 42.9019 14.8838 42.5425 14.9835 41.9993C15.0833 41.4561 14.7239 40.9349 14.1807 40.8351C9.52652 39.9802 6 35.9009 6 31C6 25.4772 10.4772 21 16 21C16.2327 21 16.4635 21.0079 16.6919 21.0235C17.034 21.0469 17.3643 20.8933 17.5668 20.6166C17.7694 20.34 17.8161 19.9788 17.6906 19.6597C17.2451 18.5276 17 17.2936 17 16Z" fill="#0FB0F0"/>
<path fill-rule="evenodd" clip-rule="evenodd" d="M32 24C28.0769 24 24.4916 24.3966 21.858 25.055C20.5489 25.3823 19.4185 25.7879 18.5914 26.2768C17.8311 26.7261 17 27.4449 17 28.5C17 28.6002 17.0075 28.6974 17.0217 28.7917C17.0075 28.8589 17 28.9286 17 29V52.8064C17 53.3441 17.2433 53.787 17.5401 54.1178C17.8315 54.4427 18.2147 54.7081 18.6255 54.9297C19.4484 55.3735 20.5732 55.7419 21.8781 56.0396C24.504 56.6386 28.0821 57 32 57C35.9179 57 39.496 56.6386 42.1219 56.0396C43.4268 55.7419 44.5516 55.3735 45.3745 54.9297C45.7853 54.7081 46.1685 54.4427 46.46 54.1178C46.7567 53.787 47 53.3441 47 52.8064V29C47 28.9286 46.9925 28.8589 46.9783 28.7917C46.9925 28.6974 47 28.6002 47 28.5C47 27.4449 46.1689 26.7261 45.4086 26.2768C44.5815 25.7879 43.4511 25.3823 42.142 25.055C39.5084 24.3966 35.9231 24 32 24ZM19.609 29.0015C19.1605 28.7364 19.0405 28.5581 19.0096 28.5C19.0405 28.4419 19.1605 28.2636 19.609 27.9985C20.1987 27.6499 21.1186 27.3014 22.343 26.9953C24.7764 26.3869 28.1911 26 32 26C35.8089 26 39.2236 26.3869 41.657 26.9953C42.8814 27.3014 43.8013 27.6499 44.391 27.9985C44.8395 28.2636 44.9594 28.4419 44.9904 28.5C44.9594 28.5581 44.8395 28.7364 44.391 29.0015C43.8013 29.3501 42.8814 29.6986 41.657 30.0047C39.2236 30.6131 35.8089 31 32 31C28.1911 31 24.7764 30.6131 22.343 30.0047C21.1186 29.6986 20.1987 29.3501 19.609 29.0015ZM19 46.7476V43.117C19.7766 43.4783 20.7614 43.7849 21.8781 44.0396C24.504 44.6386 28.0821 45 32 45C35.9179 45 39.496 44.6386 42.1219 44.0396C43.2386 43.7849 44.2234 43.4783 45 43.117V46.7476C44.9934 46.7564 44.984 46.768 44.9712 46.7823C44.8896 46.8732 44.7228 47.0088 44.4251 47.1694C43.8312 47.4897 42.9057 47.8094 41.6771 48.0897C39.2359 48.6465 35.8141 49 32 49C28.1859 49 24.7641 48.6465 22.3229 48.0897C21.0943 47.8094 20.1688 47.4897 19.5749 47.1694C19.2772 47.0088 19.1104 46.8732 19.0288 46.7823C19.016 46.768 19.0066 46.7564 19 46.7476ZM42.1219 50.0396C43.2386 49.7849 44.2234 49.4783 45 49.117V52.7476C44.9934 52.7564 44.984 52.768 44.9712 52.7823C44.8896 52.8732 44.7228 53.0088 44.4251 53.1694C43.8312 53.4897 42.9057 53.8094 41.6771 54.0897C39.2359 54.6465 35.8141 55 32 55C28.1859 55 24.7641 54.6465 22.3229 54.0897C21.0943 53.8094 20.1688 53.4897 19.5749 53.1694C19.2772 53.0088 19.1104 52.8732 19.0288 52.7823C19.016 52.768 19.0066 52.7564 19 52.7476V49.117C19.7766 49.4783 20.7614 49.7849 21.8781 50.0396C24.504 50.6386 28.0821 51 32 51C35.9179 51 39.496 50.6386 42.1219 50.0396ZM45 37.117C44.2234 37.4783 43.2386 37.7849 42.1219 38.0396C39.496 38.6386 35.9179 39 32 39C28.0821 39 24.504 38.6386 21.8781 38.0396C20.7614 37.7849 19.7766 37.4783 19 37.117V40.7476C19.0066 40.7564 19.016 40.768 19.0288 40.7823C19.1104 40.8732 19.2772 41.0088 19.5749 41.1694C20.1688 41.4897 21.0943 41.8094 22.3229 42.0897C24.7641 42.6465 28.1859 43 32 43C35.8141 43 39.2359 42.6465 41.6771 42.0897C42.9057 41.8094 43.8312 41.4897 44.4251 41.1694C44.7228 41.0088 44.8896 40.8732 44.9712 40.7823C44.984 40.768 44.9934 40.7564 45 40.7476V37.117ZM19 34.7476V30.9459C19.7754 31.3367 20.753 31.6688 21.858 31.945C24.4916 32.6034 28.0769 33 32 33C35.9231 33 39.5084 32.6034 42.142 31.945C43.247 31.6688 44.2246 31.3367 45 30.9459V34.7476L44.9915 34.7584L44.9867 34.7644L44.9799 34.7724L44.9712 34.7823C44.8896 34.8732 44.7228 35.0088 44.4251 35.1694C43.8312 35.4897 42.9057 35.8094 41.6771 36.0897C39.2359 36.6465 35.8141 37 32 37C28.1859 37 24.7641 36.6465 22.3229 36.0897C21.0943 35.8094 20.1688 35.4897 19.5749 35.1694C19.2772 35.0088 19.1104 34.8732 19.0288 34.7823C19.016 34.768 19.0066 34.7564 19 34.7476Z" fill="#0FB0F0"/>
</svg>
