<svg width="64" height="64" viewBox="0 0 64 64" fill="none" xmlns="http://www.w3.org/2000/svg">
<path fill-rule="evenodd" clip-rule="evenodd" d="M15.504 5.63833C19.7624 4.62 25.5942 4 32 4C38.4058 4 44.2376 4.62 48.496 5.63833C50.6174 6.14561 52.4041 6.76462 53.6847 7.48865C54.8851 8.16733 56 9.14683 56 10.5C56 10.7127 55.9725 10.9161 55.9214 11.1106C55.972 11.2303 56 11.3619 56 11.5V21.5C56 21.7127 55.9725 21.9161 55.9214 22.1106C55.972 22.2303 56 22.3619 56 22.5V27.5C56 28.0523 55.5523 28.5 55 28.5C54.4477 28.5 54 28.0523 54 27.5V24.3245C53.896 24.3892 53.7907 24.4514 53.6847 24.5114C52.4041 25.2354 50.6174 25.8544 48.496 26.3617C44.2376 27.38 38.4058 28 32 28C25.5942 28 19.7624 27.38 15.504 26.3617C13.3826 25.8544 11.5959 25.2354 10.3153 24.5114C10.2093 24.4514 10.104 24.3892 10 24.3245V32.5C10 32.6656 10.1723 33.133 11.2996 33.7703C12.3467 34.3623 13.9283 34.9285 15.9691 35.4165C20.035 36.3888 25.7033 37 32 37C34.0548 37 36.0448 36.9349 37.9357 36.813C38.4868 36.7775 38.9624 37.1955 38.9979 37.7467C39.0334 38.2978 38.6155 38.7734 38.0643 38.8089C36.1296 38.9336 34.0966 39 32 39C25.5942 39 19.7624 38.38 15.504 37.3617C13.3826 36.8544 11.5959 36.2354 10.3153 35.5114C10.2093 35.4514 10.104 35.3892 10 35.3245V43.5C10 43.6656 10.1723 44.133 11.2996 44.7703C12.3467 45.3623 13.9283 45.9285 15.9691 46.4165C20.035 47.3888 25.7033 48 32 48C33.0064 48 33.9974 47.9844 34.9689 47.9541C35.5209 47.9369 35.9823 48.3705 35.9995 48.9225C36.0167 49.4745 35.5832 49.936 35.0311 49.9532C34.0388 49.9841 33.0271 50 32 50C25.5942 50 19.7624 49.38 15.504 48.3617C13.3826 47.8544 11.5959 47.2354 10.3153 46.5114C10.2093 46.4514 10.104 46.3891 10 46.3245V54.5C10 54.6656 10.1723 55.133 11.2996 55.7703C12.3467 56.3623 13.9283 56.9285 15.9691 57.4165C20.035 58.3888 25.7033 59 32 59C35.7456 59 39.2742 58.7837 42.378 58.4022C42.9262 58.3348 43.4252 58.7246 43.4925 59.2727C43.5599 59.8209 43.1702 60.3199 42.622 60.3872C39.4303 60.7796 35.8199 61 32 61C25.5942 61 19.7624 60.38 15.504 59.3617C13.3826 58.8544 11.5959 58.2354 10.3153 57.5114C9.11487 56.8327 8 55.8532 8 54.5V44.5C8 44.3619 8.028 44.2303 8.07863 44.1106C8.02754 43.9161 8 43.7127 8 43.5V33.5C8 33.3619 8.028 33.2303 8.07863 33.1106C8.02754 32.9161 8 32.7127 8 32.5V22.5C8 22.3619 8.028 22.2303 8.07863 22.1106C8.02754 21.9161 8 21.7127 8 21.5V11.5C8 11.3619 8.028 11.2303 8.07863 11.1106C8.02754 10.9161 8 10.7127 8 10.5C8 9.14683 9.11487 8.16733 10.3153 7.48865C11.5959 6.76462 13.3826 6.14561 15.504 5.63833ZM11.2996 9.22966C10.1723 9.867 10 10.3344 10 10.5C10 10.6656 10.1723 11.133 11.2996 11.7703C12.3467 12.3623 13.9283 12.9285 15.9691 13.4165C20.035 14.3888 25.7033 15 32 15C38.2967 15 43.965 14.3888 48.0309 13.4165C50.0717 12.9285 51.6533 12.3623 52.7004 11.7703C53.8277 11.133 54 10.6656 54 10.5C54 10.3344 53.8277 9.867 52.7004 9.22966C51.6533 8.63766 50.0717 8.07152 48.0309 7.58349C43.965 6.61121 38.2967 6 32 6C25.7033 6 20.035 6.61121 15.9691 7.58349C13.9283 8.07152 12.3467 8.63766 11.2996 9.22966ZM53.6847 13.5114C53.7907 13.4514 53.896 13.3891 54 13.3245V21.5C54 21.6656 53.8277 22.133 52.7004 22.7703C51.6533 23.3623 50.0717 23.9285 48.0309 24.4165C43.965 25.3888 38.2967 26 32 26C25.7033 26 20.035 25.3888 15.9691 24.4165C13.9283 23.9285 12.3467 23.3623 11.2996 22.7703C10.1723 22.133 10 21.6656 10 21.5V13.3245C10.104 13.3891 10.2093 13.4514 10.3153 13.5114C11.5959 14.2354 13.3826 14.8544 15.504 15.3617C19.7624 16.38 25.5942 17 32 17C38.4058 17 44.2376 16.38 48.496 15.3617C50.6174 14.8544 52.4041 14.2354 53.6847 13.5114Z" fill="#0FB0F0"/>
<path d="M50 38C45.0294 38 41 42.0294 41 47C41 51.9706 45.0294 56 50 56C54.9706 56 59 51.9706 59 47C59 46.4477 59.4477 46 60 46C60.5523 46 61 46.4477 61 47C61 53.0751 56.0751 58 50 58C43.9249 58 39 53.0751 39 47C39 40.9249 43.9249 36 50 36H53.5858L50.2929 32.7071C49.9024 32.3166 49.9024 31.6834 50.2929 31.2929C50.6834 30.9024 51.3166 30.9024 51.7071 31.2929L56.7071 36.2929C57.0976 36.6834 57.0976 37.3166 56.7071 37.7071L51.7071 42.7071C51.3166 43.0976 50.6834 43.0976 50.2929 42.7071C49.9024 42.3166 49.9024 41.6834 50.2929 41.2929L53.5858 38H50Z" fill="#0FB0F0"/>
</svg>
