<svg width="64" height="64" viewBox="0 0 64 64" fill="none" xmlns="http://www.w3.org/2000/svg">
<path fill-rule="evenodd" clip-rule="evenodd" d="M23 30C25.7614 30 28 27.7614 28 25C28 22.2386 25.7614 20 23 20C20.2386 20 18 22.2386 18 25C18 27.7614 20.2386 30 23 30ZM23 28C24.6569 28 26 26.6569 26 25C26 23.3431 24.6569 22 23 22C21.3431 22 20 23.3431 20 25C20 26.6569 21.3431 28 23 28Z" fill="#0FB0F0" fill-opacity="0.89"/>
<path fill-rule="evenodd" clip-rule="evenodd" d="M19.6679 13.3254C19.982 11.9642 21.1941 11 22.591 11H23.409C24.8059 11 26.018 11.9642 26.3321 13.3254L26.5548 14.2903C26.7092 14.9595 27.4768 15.2774 28.0592 14.9134L28.899 14.3885C30.0836 13.6481 31.6225 13.8234 32.6103 14.8112L33.1887 15.3896C34.1765 16.3774 34.3518 17.9163 33.6114 19.1009L33.0864 19.9408C32.7225 20.5232 33.0404 21.2907 33.7096 21.4452L34.6746 21.6679C36.0358 21.982 37 23.1941 37 24.591V25.409C37 26.8059 36.0358 28.018 34.6746 28.3321L33.7097 28.5548C33.0405 28.7092 32.7226 29.4768 33.0865 30.0592L33.6113 30.8989C34.3517 32.0835 34.1765 33.6224 33.1887 34.6102L32.6103 35.1886C31.6225 36.1764 30.0836 36.3516 28.899 35.6112L28.0592 35.0864C27.4768 34.7224 26.7093 35.0403 26.5548 35.7095L26.3321 36.6746C26.018 38.0358 24.8059 39 23.409 39H22.591C21.1941 39 19.982 38.0358 19.6679 36.6746L19.4452 35.7095C19.2907 35.0403 18.5232 34.7224 17.9408 35.0864L17.101 35.6112C15.9164 36.3516 14.3775 36.1764 13.3897 35.1886L12.8113 34.6102C11.8235 33.6224 11.6483 32.0835 12.3887 30.8989L12.9135 30.0592C13.2774 29.4768 12.9595 28.7092 12.2903 28.5548L11.3254 28.3321C9.96423 28.018 9 26.8059 9 25.409V24.591C9 23.1941 9.96423 21.982 11.3254 21.6679L12.2904 21.4452C12.9596 21.2907 13.2775 20.5232 12.9136 19.9408L12.3886 19.1009C11.6482 17.9163 11.8235 16.3774 12.8113 15.3896L13.3897 14.8112C14.3775 13.8234 15.9164 13.6481 17.101 14.3885L17.9408 14.9134C18.5232 15.2774 19.2908 14.9595 19.4452 14.2903L19.6679 13.3254ZM22.591 13C22.1254 13 21.7213 13.3214 21.6166 13.7751L21.394 14.74C20.9307 16.7476 18.628 17.7014 16.8808 16.6094L16.041 16.0845C15.6461 15.8377 15.1332 15.8962 14.8039 16.2254L14.2255 16.8038C13.8963 17.1331 13.8378 17.646 14.0846 18.0409L14.6095 18.8808C15.7015 20.628 14.7477 22.9306 12.7401 23.3939L11.7751 23.6166C11.3214 23.7213 11 24.1254 11 24.591V25.409C11 25.8746 11.3214 26.2787 11.7751 26.3834L12.74 26.606C14.7476 27.0693 15.7014 29.372 14.6094 31.1192L14.0847 31.9589C13.8379 32.3537 13.8963 32.8667 14.2255 33.196L14.8039 33.7744C15.1332 34.1036 15.6462 34.162 16.041 33.9152L16.8808 33.3904C18.628 32.2984 20.9306 33.2522 21.3939 35.2598L21.6166 36.2249C21.7213 36.6786 22.1254 37 22.591 37H23.409C23.8746 37 24.2787 36.6786 24.3834 36.2249L24.6061 35.2598C25.0694 33.2522 27.372 32.2984 29.1192 33.3904L29.959 33.9152C30.3538 34.162 30.8668 34.1036 31.1961 33.7744L31.7745 33.196C32.1037 32.8667 32.1621 32.3537 31.9153 31.9589L31.3906 31.1192C30.2986 29.372 31.2524 27.0693 33.26 26.606L34.2249 26.3834C34.6786 26.2787 35 25.8746 35 25.409V24.591C35 24.1254 34.6786 23.7213 34.2249 23.6166L33.2599 23.3939C31.2523 22.9306 30.2985 20.628 31.3905 18.8808L31.9154 18.0409C32.1622 17.646 32.1037 17.1331 31.7745 16.8038L31.1961 16.2254C30.8668 15.8962 30.3539 15.8377 29.959 16.0845L29.1192 16.6094C27.372 17.7014 25.0693 16.7476 24.606 14.74L24.3834 13.7751C24.2787 13.3214 23.8746 13 23.409 13H22.591Z" fill="#0FB0F0" fill-opacity="0.89"/>
<path fill-rule="evenodd" clip-rule="evenodd" d="M50 30C50 31.6569 48.6569 33 47 33C45.3431 33 44 31.6569 44 30C44 28.3431 45.3431 27 47 27C48.6569 27 50 28.3431 50 30ZM48 30C48 30.5523 47.5523 31 47 31C46.4477 31 46 30.5523 46 30C46 29.4477 46.4477 29 47 29C47.5523 29 48 29.4477 48 30Z" fill="#0FB0F0" fill-opacity="0.89"/>
<path fill-rule="evenodd" clip-rule="evenodd" d="M46.9728 22C45.8927 22 44.9555 22.7455 44.7127 23.798C44.6633 24.0118 44.418 24.1134 44.2319 23.9971C43.316 23.4246 42.1261 23.5601 41.3624 24.3239L41.3239 24.3623C40.5602 25.1261 40.4247 26.3159 40.9971 27.2319C41.1134 27.418 41.0118 27.6633 40.798 27.7126C39.7455 27.9555 39 28.8927 39 29.9728V30.0272C39 31.1073 39.7455 32.0445 40.798 32.2874C41.0118 32.3367 41.1134 32.582 40.9971 32.768C40.4246 33.684 40.5602 34.8738 41.3239 35.6375L41.3624 35.676C42.1261 36.4398 43.316 36.5753 44.2319 36.0028C44.418 35.8865 44.6633 35.9881 44.7126 36.202C44.9555 37.2544 45.8927 38 46.9728 38H47.0272C48.1073 38 49.0445 37.2544 49.2874 36.202C49.3367 35.9881 49.582 35.8865 49.7681 36.0028C50.684 36.5753 51.8739 36.4398 52.6376 35.676L52.6761 35.6375C53.4398 34.8738 53.5753 33.684 53.0029 32.768C52.8866 32.582 52.9882 32.3367 53.202 32.2874C54.2545 32.0445 55 31.1073 55 30.0272V29.9728C55 28.8927 54.2545 27.9555 53.202 27.7126C52.9882 27.6633 52.8866 27.418 53.0029 27.2319C53.5753 26.3159 53.4398 25.1261 52.6761 24.3623L52.6376 24.3239C51.8739 23.5601 50.684 23.4246 49.7681 23.9971C49.582 24.1134 49.3367 24.0118 49.2873 23.798C49.0445 22.7455 48.1073 22 47.0272 22H46.9728ZM46.6614 24.2477C46.6949 24.1027 46.824 24 46.9728 24H47.0272C47.176 24 47.3051 24.1027 47.3386 24.2477C47.6968 25.7999 49.4772 26.5373 50.8281 25.6931C50.9543 25.6142 51.1182 25.6329 51.2234 25.7381L51.2619 25.7765C51.3671 25.8817 51.3858 26.0457 51.3069 26.1719C50.4626 27.5228 51.2 29.3032 52.7523 29.6614C52.8973 29.6949 53 29.824 53 29.9728V30.0272C53 30.176 52.8973 30.3051 52.7523 30.3386C51.2001 30.6968 50.4626 32.4771 51.3069 33.828C51.3858 33.9542 51.3671 34.1181 51.2619 34.2233L51.2234 34.2618C51.1182 34.367 50.9543 34.3857 50.8281 34.3068C49.4772 33.4625 47.6968 34.2001 47.3386 35.7523C47.3051 35.8973 47.176 36 47.0272 36H46.9728C46.824 36 46.6949 35.8973 46.6614 35.7523C46.3032 34.2001 44.5228 33.4625 43.1719 34.3068C43.0457 34.3857 42.8818 34.367 42.7766 34.2618L42.7381 34.2233C42.6329 34.1181 42.6142 33.9542 42.6931 33.828C43.5374 32.4771 42.7999 30.6968 41.2477 30.3386C41.1027 30.3051 41 30.176 41 30.0272V29.9728C41 29.824 41.1027 29.6949 41.2477 29.6614C42.8 29.3032 43.5374 27.5228 42.6931 26.1719C42.6142 26.0457 42.6329 25.8817 42.7381 25.7765L42.7766 25.7381C42.8818 25.6329 43.0457 25.6142 43.1719 25.6931C44.5228 26.5373 46.3032 25.7999 46.6614 24.2477Z" fill="#0FB0F0" fill-opacity="0.89"/>
<path fill-rule="evenodd" clip-rule="evenodd" d="M4 10C4 8.34315 5.34315 7 7 7H57C58.6569 7 60 8.34315 60 10V45C60 46.6569 58.6569 48 57 48H40V54C40 55.1046 39.1046 56 38 56H25C23.8954 56 23 55.1046 23 54V48H7C5.34314 48 4 46.6569 4 45V10ZM7 9C6.44772 9 6 9.44772 6 10V41H58V10C58 9.44772 57.5523 9 57 9H7ZM58 43H6V45C6 45.5523 6.44772 46 7 46H57C57.5523 46 58 45.5523 58 45V43ZM25 48H38V54H25V48Z" fill="#0FB0F0" fill-opacity="0.89"/>
</svg>
