<svg width="64" height="64" viewBox="0 0 64 64" fill="none" xmlns="http://www.w3.org/2000/svg">
<path fill-rule="evenodd" clip-rule="evenodd" d="M41 38C41 39.6569 39.6569 41 38 41C36.3431 41 35 39.6569 35 38C35 36.6887 35.8414 35.5738 37.0137 35.1659C37.0047 35.1119 37 35.0565 37 35V29C37 28.4477 37.4477 28 38 28C38.5523 28 39 28.4477 39 29V35C39 35.0565 38.9953 35.1119 38.9863 35.1659C40.1586 35.5738 41 36.6887 41 38ZM39 38C39 38.5523 38.5523 39 38 39C37.4477 39 37 38.5523 37 38C37 37.4477 37.4477 37 38 37C38.5523 37 39 37.4477 39 38Z" fill="#0FB0F0"/>
<path fill-rule="evenodd" clip-rule="evenodd" d="M38 55C28.6112 55 21 47.3888 21 38C21 28.6112 28.6112 21 38 21C47.3888 21 55 28.6112 55 38C55 47.3888 47.3888 55 38 55ZM51 37H52.9672C52.8351 34.9937 52.3086 33.0951 51.4644 31.381L50.6244 31.866C50.1461 32.1422 49.5345 31.9783 49.2584 31.5C48.9822 31.0217 49.1461 30.4101 49.6244 30.134L50.4628 29.6499C49.3728 28.0262 47.9738 26.6272 46.3501 25.5372L45.866 26.3756C45.5899 26.8539 44.9783 27.0178 44.5 26.7416C44.0217 26.4655 43.8578 25.8539 44.134 25.3756L44.6189 24.5356C42.9049 23.6914 41.0063 23.1649 39 23.0328V25C39 25.5523 38.5523 26 38 26C37.4477 26 37 25.5523 37 25V23.0328C34.9936 23.1649 33.095 23.6914 31.381 24.5356L31.866 25.3757C32.1422 25.854 31.9783 26.4656 31.5 26.7418C31.0217 27.0179 30.4101 26.854 30.134 26.3757L29.6498 25.5372C28.0261 26.6272 26.6272 28.0262 25.5372 29.6499L26.3756 30.134C26.8539 30.4101 27.0178 31.0217 26.7416 31.5C26.4655 31.9783 25.8539 32.1422 25.3756 31.866L24.5356 31.381C23.6914 33.0951 23.1649 34.9937 23.0328 37H25C25.5523 37 26 37.4477 26 38C26 38.5523 25.5523 39 25 39H23.0328C23.1649 41.0063 23.6914 42.9049 24.5356 44.619L25.3756 44.134C25.8539 43.8578 26.4655 44.0217 26.7416 44.5C27.0178 44.9783 26.8539 45.5899 26.3756 45.866L25.5372 46.3501C26.6272 47.9738 28.0261 49.3728 29.6498 50.4628L30.134 49.6243C30.4101 49.146 31.0217 48.9821 31.5 49.2582C31.9783 49.5344 32.1422 50.146 31.866 50.6243L31.381 51.4644C33.095 52.3086 34.9936 52.8351 37 52.9672V51C37 50.4477 37.4477 50 38 50C38.5523 50 39 50.4477 39 51V52.9672C41.0063 52.8351 42.9049 52.3086 44.619 51.4644L44.134 50.6244C43.8578 50.1461 44.0217 49.5345 44.5 49.2584C44.9783 48.9822 45.5899 49.1461 45.866 49.6244L46.3501 50.4628C47.9738 49.3728 49.3728 47.9738 50.4628 46.3501L49.6244 45.866C49.1461 45.5899 48.9822 44.9783 49.2584 44.5C49.5345 44.0217 50.1461 43.8578 50.6244 44.134L51.4644 44.6189C52.3086 42.9049 52.8351 41.0063 52.9672 39H51C50.4477 39 50 38.5523 50 38C50 37.4477 50.4477 37 51 37Z" fill="#0FB0F0"/>
<path fill-rule="evenodd" clip-rule="evenodd" d="M42 16C42 16.1218 41.9891 16.2411 41.9682 16.3569C45.2845 16.961 48.3415 18.3086 50.96 20.2207C51.0332 19.5686 51.3198 18.9359 51.8199 18.4358C52.9915 17.2643 54.891 17.2643 56.0625 18.4358L58.2612 20.6345C59.4328 21.8061 59.4328 23.7056 58.2612 24.8772C57.7107 25.4277 56.9994 25.7195 56.2785 25.7527C58.6288 29.2534 60 33.4666 60 38C60 50.1503 50.1503 60 38 60C25.8497 60 16 50.1503 16 38C16 33.4646 17.3724 29.2497 19.7246 25.7481C19.0306 25.6981 18.3506 25.4078 17.8199 24.8772C16.6484 23.7056 16.6484 21.8061 17.8199 20.6345L20.0186 18.4358C21.1902 17.2643 23.0897 17.2643 24.2613 18.4358C24.7475 18.922 25.0319 19.5336 25.1145 20.1664C27.7165 18.2831 30.7469 16.9553 34.0318 16.3569C34.0109 16.2411 34 16.1218 34 16V15C34 14.4477 33.5523 14 33 14C31.3431 14 30 12.6569 30 11C30 9.34315 31.3431 8 33 8H43C44.6569 8 46 9.34315 46 11C46 12.6569 44.6569 14 43 14C42.4477 14 42 14.4477 42 15V16ZM33 10C32.4477 10 32 10.4477 32 11C32 11.5523 32.4477 12 33 12C34.6569 12 36 13.3431 36 15V16H40V15C40 13.3431 41.3431 12 43 12C43.5523 12 44 11.5523 44 11C44 10.4477 43.5523 10 43 10H33ZM18 38C18 26.9543 26.9543 18 38 18C49.0457 18 58 26.9543 58 38C58 49.0457 49.0457 58 38 58C26.9543 58 18 49.0457 18 38ZM19.2341 22.0488L21.4328 19.85C21.8234 19.4595 22.4565 19.4595 22.8471 19.85C23.2376 20.2406 23.2376 20.8737 22.8471 21.2643L20.6484 23.463C20.2578 23.8535 19.6247 23.8535 19.2341 23.463C18.8436 23.0724 18.8436 22.4393 19.2341 22.0488ZM54.6483 19.85L56.847 22.0488C57.2376 22.4393 57.2376 23.0724 56.847 23.463C56.4565 23.8535 55.8233 23.8535 55.4328 23.463L53.2341 21.2643C52.8436 20.8737 52.8436 20.2406 53.2341 19.85C53.6246 19.4595 54.2578 19.4595 54.6483 19.85Z" fill="#0FB0F0"/>
<path d="M12.5 28C11.9477 28 11.5 28.4477 11.5 29C11.5 29.5523 11.9477 30 12.5 30H15C15.5523 30 16 29.5523 16 29C16 28.4477 15.5523 28 15 28H12.5Z" fill="#0FB0F0"/>
<path d="M5.5 35C5.5 34.4477 5.94772 34 6.5 34H13C13.5523 34 14 34.4477 14 35C14 35.5523 13.5523 36 13 36H6.5C5.94772 36 5.5 35.5523 5.5 35Z" fill="#0FB0F0"/>
<path d="M4.5 40C3.94772 40 3.5 40.4477 3.5 41C3.5 41.5523 3.94772 42 4.5 42H13C13.5523 42 14 41.5523 14 41C14 40.4477 13.5523 40 13 40H4.5Z" fill="#0FB0F0"/>
<path d="M9.5 47C9.5 46.4477 9.94772 46 10.5 46H15C15.5523 46 16 46.4477 16 47C16 47.5523 15.5523 48 15 48H10.5C9.94772 48 9.5 47.5523 9.5 47Z" fill="#0FB0F0"/>
<path d="M15.5 51C14.9477 51 14.5 51.4477 14.5 52C14.5 52.5523 14.9477 53 15.5 53H18C18.5523 53 19 52.5523 19 52C19 51.4477 18.5523 51 18 51H15.5Z" fill="#0FB0F0"/>
</svg>
