<svg width="64" height="64" viewBox="0 0 64 64" fill="none" xmlns="http://www.w3.org/2000/svg">
<path fill-rule="evenodd" clip-rule="evenodd" d="M35 8C35 6.34315 33.6569 5 32 5C30.3431 5 29 6.34315 29 8C29 9.65685 30.3431 11 32 11C33.6569 11 35 9.65685 35 8ZM33 8C33 7.44772 32.5523 7 32 7C31.4477 7 31 7.44772 31 8C31 8.55228 31.4477 9 32 9C32.5523 9 33 8.55228 33 8Z" fill="#0FB0F0"/>
<path fill-rule="evenodd" clip-rule="evenodd" d="M27 25C27 22.2386 29.2386 20 32 20C34.7614 20 37 22.2386 37 25C37 27.7614 34.7614 30 32 30C29.2386 30 27 27.7614 27 25ZM32 22C30.3431 22 29 23.3431 29 25C29 26.6569 30.3431 28 32 28C33.6569 28 35 26.6569 35 25C35 23.3431 33.6569 22 32 22Z" fill="#0FB0F0"/>
<path fill-rule="evenodd" clip-rule="evenodd" d="M32 2C34.9742 2 37.4429 4.16399 37.9176 7.00335C37.9448 7.00113 37.9723 7 38 7H57C58.6569 7 60 8.34315 60 10V45C60 46.6569 58.6569 48 57 48H40V54C40 55.1046 39.1046 56 38 56H25C23.8954 56 23 55.1046 23 54V48H7C5.34314 48 4 46.6569 4 45V10C4 8.34315 5.34315 7 7 7H26C26.0277 7 26.0552 7.00113 26.0824 7.00335C26.5571 4.16399 29.0258 2 32 2ZM32 4C34.2091 4 36 5.79086 36 8C36 10.2091 34.2091 12 32 12C29.7909 12 28 10.2091 28 8C28 5.79086 29.7909 4 32 4ZM32.9967 13.9176C35.5119 13.4971 37.4971 11.5119 37.9176 8.99665C37.9448 8.99887 37.9723 9 38 9H57C57.5523 9 58 9.44772 58 10V41H37C36.4477 41 36 41.4477 36 42C36 42.5523 36.4477 43 37 43H58V45C58 45.5523 57.5523 46 57 46H7C6.44772 46 6 45.5523 6 45V43H27C27.5523 43 28 42.5523 28 42C28 41.4477 27.5523 41 27 41H6V10C6 9.44772 6.44772 9 7 9H26C26.0277 9 26.0552 8.99887 26.0824 8.99665C26.5029 11.5119 28.4881 13.4971 31.0033 13.9176C31.0011 13.9448 31 13.9723 31 14V16.0284C25.5129 16.3408 20.7143 19.2075 17.8018 23.4471C17.6814 23.6223 17.5836 23.8079 17.5083 24H13.8293C13.528 23.1476 12.8524 22.472 12 22.1707V16H15C15.0565 16 15.1119 15.9953 15.1659 15.9863C15.5738 17.1586 16.6887 18 18 18C19.6569 18 21 16.6569 21 15C21 13.3431 19.6569 12 18 12C16.6887 12 15.5738 12.8414 15.1659 14.0137C15.1119 14.0047 15.0565 14 15 14H11C10.4477 14 10 14.4477 10 15V22.1707C8.83481 22.5825 8 23.6938 8 25C8 26.6569 9.34315 28 11 28C12.3062 28 13.4175 27.1652 13.8293 26H17.5083C17.5836 26.1921 17.6814 26.3777 17.8018 26.5529C18.7721 27.9653 19.9517 29.2254 21.2964 30.2894L19.2934 32.2924C18.9018 32.105 18.4631 32 18 32C16.6887 32 15.5738 32.8414 15.1659 34.0137C15.1119 34.0047 15.0565 34 15 34H10C9.44772 34 9 34.4477 9 35C9 35.5523 9.44772 36 10 36H15C15.0565 36 15.1119 35.9953 15.1659 35.9863C15.5738 37.1586 16.6887 38 18 38C19.6569 38 21 36.6569 21 35C21 34.5369 20.895 34.0982 20.7076 33.7066L22.9607 31.4535C25.3204 32.9045 28.0615 33.8043 31 33.9716V36C31 36.0565 31.0047 36.1119 31.0137 36.1659C29.8414 36.5738 29 37.6887 29 39C29 40.6569 30.3431 42 32 42C33.6569 42 35 40.6569 35 39C35 37.6887 34.1586 36.5738 32.9863 36.1659C32.9953 36.1119 33 36.0565 33 36V33.9716C38.4871 33.6592 43.2857 30.7925 46.1982 26.5529C46.3185 26.3777 46.4164 26.1921 46.4917 26H50.1707C50.472 26.8524 51.1476 27.528 52 27.8293V34H49C48.9435 34 48.8881 34.0047 48.8341 34.0137C48.4262 32.8414 47.3113 32 46 32C44.3431 32 43 33.3431 43 35C43 36.6569 44.3431 38 46 38C47.3113 38 48.4262 37.1586 48.8341 35.9863C48.8881 35.9953 48.9435 36 49 36H53C53.5523 36 54 35.5523 54 35V27.8293C55.1652 27.4175 56 26.3062 56 25C56 23.3431 54.6569 22 53 22C51.6938 22 50.5825 22.8348 50.1707 24H46.4917C46.4164 23.8079 46.3185 23.6223 46.1982 23.4471C45.2279 22.0347 44.0482 20.7746 42.7035 19.7106L42.7071 19.7071L44.7066 17.7076C45.0982 17.895 45.5369 18 46 18C47.3113 18 48.4262 17.1586 48.8341 15.9863C48.8881 15.9953 48.9435 16 49 16H54C54.5523 16 55 15.5523 55 15C55 14.4477 54.5523 14 54 14H49C48.9435 14 48.8881 14.0047 48.8341 14.0137C48.4262 12.8414 47.3113 12 46 12C44.3431 12 43 13.3431 43 15C43 15.4631 43.1049 15.9018 43.2924 16.2934L41.2929 18.2929C41.2073 18.3784 41.1405 18.4757 41.0925 18.5794C38.7208 17.1091 35.9607 16.1969 33 16.0284V14C33 13.9723 32.9989 13.9448 32.9967 13.9176ZM53 26C53.5523 26 54 25.5523 54 25C54 24.4477 53.5523 24 53 24C52.4477 24 52 24.4477 52 25C52 25.5523 52.4477 26 53 26ZM25 48H38V54H25V48ZM19.4503 24.5796C22.1781 20.6088 26.7796 18 32 18C37.2204 18 41.8218 20.6088 44.5497 24.5796C44.7242 24.8336 44.7242 25.1664 44.5497 25.4204C41.8218 29.3912 37.2204 32 32 32C26.7796 32 22.1781 29.3912 19.4503 25.4204C19.2758 25.1664 19.2758 24.8336 19.4503 24.5796ZM11 24C10.4477 24 10 24.4477 10 25C10 25.5523 10.4477 26 11 26C11.5523 26 12 25.5523 12 25C12 24.4477 11.5523 24 11 24ZM18 16C17.4477 16 17 15.5523 17 15C17 14.4477 17.4477 14 18 14C18.5523 14 19 14.4477 19 15C19 15.5523 18.5523 16 18 16ZM47 35C47 34.4477 46.5523 34 46 34C45.4477 34 45 34.4477 45 35C45 35.5523 45.4477 36 46 36C46.5523 36 47 35.5523 47 35ZM32 38C32.5523 38 33 38.4477 33 39C33 39.5523 32.5523 40 32 40C31.4477 40 31 39.5523 31 39C31 38.4477 31.4477 38 32 38ZM46 14C45.4477 14 45 14.4477 45 15C45 15.5523 45.4477 16 46 16C46.5523 16 47 15.5523 47 15C47 14.4477 46.5523 14 46 14ZM17 35C17 34.4477 17.4477 34 18 34C18.5523 34 19 34.4477 19 35C19 35.5523 18.5523 36 18 36C17.4477 36 17 35.5523 17 35Z" fill="#0FB0F0"/>
</svg>
